<?xml version="1.0" encoding="UTF-8" standalone="no"?>
<svg
   xmlns:dc="http://purl.org/dc/elements/1.1/"
   xmlns:cc="http://creativecommons.org/ns#"
   xmlns:rdf="http://www.w3.org/1999/02/22-rdf-syntax-ns#"
   xmlns:svg="http://www.w3.org/2000/svg"
   xmlns="http://www.w3.org/2000/svg"
   xmlns:sodipodi="http://sodipodi.sourceforge.net/DTD/sodipodi-0.dtd"
   xmlns:inkscape="http://www.inkscape.org/namespaces/inkscape"
   version="1.1"
   id="Layer_1"
   x="0px"
   y="0px"
   viewBox="0 0 29 29"
   xml:space="preserve"
   sodipodi:docname="addEventColor.svg"
   inkscape:version="0.92.3 (2405546, 2018-03-11)"><defs
     id="defs343" /><sodipodi:namedview
     pagecolor="#ffffff"
     bordercolor="#666666"
     borderopacity="1"
     objecttolerance="10"
     gridtolerance="10"
     guidetolerance="10"
     inkscape:pageopacity="0"
     inkscape:pageshadow="2"
     inkscape:window-width="1853"
     inkscape:window-height="1025"
     id="namedview341"
     showgrid="false"
     inkscape:zoom="8.137931"
     inkscape:cx="-6.0826272"
     inkscape:cy="14.5"
     inkscape:window-x="67"
     inkscape:window-y="27"
     inkscape:window-maximized="1"
     inkscape:current-layer="Layer_1" /><style
     type="text/css"
     id="style334">.st0{fill:none;stroke:#000000;stroke-miterlimit:10;} .st1{fill:none;stroke:#000000;stroke-width:2;stroke-miterlimit:10;} .st2{fill:none;stroke:#000000;stroke-width:2;stroke-linecap:round;stroke-linejoin:round;stroke-miterlimit:10;}</style><path
     d="M14.5 2C7.596 2 2 7.596 2 14.5S7.596 27 14.5 27 27 21.404 27 14.5 21.404 2 14.5 2zM21 15.5h-5.5V21a1 1 0 1 1-2 0v-5.5H8a1 1 0 1 1 0-2h5.5V8a1 1 0 1 1 2 0v5.5H21a1 1 0 1 1 0 2z"
     id="path336"
     style="fill:#26beb5;fill-opacity:1" /><metadata
     id="metadata338"><rdf:RDF><rdf:Description
         about="https://iconscout.com/legal#licenses"
         dc:title="add,insert,plus,new,sign,button"
         dc:description="add,insert,plus,new,sign,button"
         dc:publisher="Iconscout"
         dc:date="2017-10-04"
         dc:format="image/svg+xml"
         dc:language="en"><dc:creator><rdf:Bag><rdf:li>Jemis Mali</rdf:li></rdf:Bag></dc:creator></rdf:Description><cc:Work
         rdf:about=""><dc:format>image/svg+xml</dc:format><dc:type
           rdf:resource="http://purl.org/dc/dcmitype/StillImage" /><dc:title></dc:title></cc:Work></rdf:RDF></metadata></svg>