<?xml version="1.0" encoding="UTF-8" standalone="no"?>
<svg
   xmlns:dc="http://purl.org/dc/elements/1.1/"
   xmlns:cc="http://creativecommons.org/ns#"
   xmlns:rdf="http://www.w3.org/1999/02/22-rdf-syntax-ns#"
   xmlns:svg="http://www.w3.org/2000/svg"
   xmlns="http://www.w3.org/2000/svg"
   xmlns:xlink="http://www.w3.org/1999/xlink"
   xmlns:sodipodi="http://sodipodi.sourceforge.net/DTD/sodipodi-0.dtd"
   xmlns:inkscape="http://www.inkscape.org/namespaces/inkscape"
   viewBox="0 0 478.78207 455.36334"
   height="455.36334"
   width="478.78207"
   xml:space="preserve"
   id="svg2"
   version="1.1"
   sodipodi:docname="archiveVectorIlustration.svg"
   inkscape:version="0.92.3 (2405546, 2018-03-11)"><sodipodi:namedview
     pagecolor="#ffffff"
     bordercolor="#666666"
     borderopacity="1"
     objecttolerance="10"
     gridtolerance="10"
     guidetolerance="10"
     inkscape:pageopacity="0"
     inkscape:pageshadow="2"
     inkscape:window-width="1853"
     inkscape:window-height="1025"
     id="namedview4971"
     showgrid="false"
     inkscape:zoom="1.1125147"
     inkscape:cx="362.50325"
     inkscape:cy="140.85882"
     inkscape:window-x="67"
     inkscape:window-y="27"
     inkscape:window-maximized="1"
     inkscape:current-layer="g12" /><metadata
     id="metadata8"><rdf:RDF><cc:Work
         rdf:about=""><dc:format>image/svg+xml</dc:format><dc:type
           rdf:resource="http://purl.org/dc/dcmitype/StillImage" /><dc:title /></cc:Work></rdf:RDF></metadata><defs
     id="defs6"><linearGradient
       inkscape:collect="always"
       id="linearGradient5520"><stop
         style="stop-color:#000000;stop-opacity:0.69696969"
         offset="0"
         id="stop5516" /><stop
         style="stop-color:#000000;stop-opacity:0.25"
         offset="1"
         id="stop5518" /></linearGradient><linearGradient
       id="linearGradient1906"><stop
         id="stop1902"
         offset="0"
         style="stop-color:#8a00ff;stop-opacity:1" /><stop
         id="stop1904"
         offset="1"
         style="stop-color:#d607ff;stop-opacity:1" /></linearGradient><clipPath
       id="clipPath40"
       clipPathUnits="userSpaceOnUse"><path
         id="path38"
         d="M 1503.58,1627.85 H 734.023 c -49.828,0 -90.222,40.39 -90.222,90.21 0,49.84 40.394,90.23 90.222,90.23 h 769.557 c 49.83,0 90.22,-40.39 90.22,-90.23 0,-49.82 -40.39,-90.21 -90.22,-90.21 z"
         inkscape:connector-curvature="0" /></clipPath><linearGradient
       id="linearGradient46"
       spreadMethod="pad"
       gradientTransform="matrix(950,0,0,-950,643.801,1718.07)"
       gradientUnits="userSpaceOnUse"
       y2="0"
       x2="1"
       y1="0"
       x1="0"><stop
         id="stop42"
         offset="0"
         style="stop-opacity:1;stop-color:#b6176e" /><stop
         id="stop44"
         offset="1"
         style="stop-opacity:1;stop-color:#f14565" /></linearGradient><clipPath
       id="clipPath374"
       clipPathUnits="userSpaceOnUse"><path
         id="path372"
         d="m 735.129,3851.16 -72.477,72.48 c -15.132,15.13 -15.132,39.67 0,54.79 l 72.477,72.48 c 15.137,15.14 39.668,15.14 54.805,0 l 72.472,-72.48 c 15.133,-15.12 15.133,-39.66 0,-54.79 l -72.472,-72.48 c -15.137,-15.14 -39.668,-15.14 -54.805,0 z"
         inkscape:connector-curvature="0" /></clipPath><linearGradient
       id="linearGradient380"
       spreadMethod="pad"
       gradientTransform="matrix(618.34,0,0,-618.34,592.55,3951.03)"
       gradientUnits="userSpaceOnUse"
       y2="0"
       x2="1"
       y1="0"
       x1="0"><stop
         id="stop376"
         offset="0"
         style="stop-opacity:1;stop-color:#58c9ec" /><stop
         id="stop378"
         offset="1"
         style="stop-opacity:1;stop-color:#283476" /></linearGradient><clipPath
       id="clipPath390"
       clipPathUnits="userSpaceOnUse"><path
         id="path388"
         d="m 3190.56,444.41 c -32.29,0 -63.11,6.512 -86.14,19.809 l -935.49,540.671 -93.09,53.8 c -19.74,11.4 -30.74,26.11 -33.51,41.81 l -0.1,-0.05 -20.85,104.12 c 3.47,-14.91 14.51,-28.8 33.37,-39.69 L 3108.1,556.109 c 23.2,-13.39 54.23,-19.949 86.75,-19.949 39.25,0 80.66,9.559 112.99,28.231 l 2254.3,1301.529 c 27.37,15.79 43.44,35.34 47.74,54.71 l -21.16,-100.72 -0.13,0.16 c -3.95,-19.56 -19.82,-39.34 -47.44,-55.29 L 5457.97,1716.76 3302.75,472.441 c -32.11,-18.543 -73.22,-28.031 -112.19,-28.031"
         inkscape:connector-curvature="0" /></clipPath><linearGradient
       id="linearGradient396"
       spreadMethod="pad"
       gradientTransform="matrix(-3584.59,173.047,173.047,3584.59,4373.67,1442.05)"
       gradientUnits="userSpaceOnUse"
       y2="0"
       x2="1"
       y1="0"
       x1="0"><stop
         id="stop392"
         offset="0"
         style="stop-opacity:1;stop-color:#b6176e" /><stop
         id="stop394"
         offset="1"
         style="stop-opacity:1;stop-color:#f14565" /></linearGradient><clipPath
       id="clipPath406"
       clipPathUnits="userSpaceOnUse"><path
         id="path404"
         d="m 3194.85,536.16 c -32.52,0 -63.55,6.559 -86.75,19.949 L 2054.75,1164.88 c -18.86,10.89 -29.9,24.78 -33.37,39.69 -5.94,25.54 10.38,54.08 47.71,75.63 l 765.35,441.88 v -156.44 c 0,-8.98 1.22,-18.29 3.44,-27.53 l -180.47,-103.96 c -43.71,-25.24 -48.46,-63.41 -10.61,-85.27 l 778.87,-450.13 c 17.15,-9.898 40.09,-14.762 64.14,-14.762 29.02,0 59.64,7.082 83.54,20.883 l 1380,794.969 c 43.72,25.24 48.46,63.42 10.61,85.27 l -157.91,91.26 16.14,9.31 0.62,0.35 1.62,0.94 -0.02,0.08 c 10.99,7.04 17.93,22.23 17.93,43.64 v 307.82 l 133.32,-76.97 c 3.5,-2.02 8.18,-3.01 13.09,-3.01 5.92,0 12.16,1.45 17.04,4.26 8.92,5.16 9.89,12.94 2.16,17.4 l -165.61,95.62 v 129.71 l 734.15,-424.29 c 27.49,-15.87 38.37,-38.12 33.39,-60.6 -4.3,-19.37 -20.37,-38.92 -47.74,-54.71 L 3307.84,564.391 C 3275.51,545.719 3234.1,536.16 3194.85,536.16 m 826.83,1683.91 v 187.46 l 71.52,41.29 61.72,-202.33 c -10.7,2.35 -22.21,3.51 -33.98,3.51 -29.02,0 -59.63,-7.07 -83.53,-20.87 l -15.73,-9.06"
         inkscape:connector-curvature="0" /></clipPath><linearGradient
       xlink:href="#linearGradient396"
       id="linearGradient412"
       spreadMethod="pad"
       gradientTransform="matrix(-3586.42,-178.42,-178.42,3586.42,5906.26,1677.06)"
       gradientUnits="userSpaceOnUse"
       y2="0"
       x2="1"
       y1="0"
       x1="0"><stop
         id="stop408"
         offset="0"
         style="stop-opacity:1;stop-color:#b6176e" /><stop
         id="stop410"
         offset="1"
         style="stop-opacity:1;stop-color:#f14565" /></linearGradient><clipPath
       id="clipPath422"
       clipPathUnits="userSpaceOnUse"><path
         id="path420"
         d="m 3489.81,883.988 c -24.05,0 -46.99,4.864 -64.14,14.762 l -778.87,450.13 c -37.85,21.86 -33.1,60.03 10.61,85.27 l 180.47,103.96 c 7.77,-32.2 27.81,-63.52 51.3,-77.09 l 55.24,-31.84 -113.09,-65.28 658.25,-380.048 463.46,267.488 -92.94,53.67 141.49,81.61 0.61,0.35 1.62,0.94 -0.03,0.08 c 10.97,7.02 17.89,22.17 17.89,43.53 v 221.33 l 314.63,-181.64 463.45,267.49 -116.14,67.05 122.43,70.62 157.91,-91.26 c 37.85,-21.85 33.11,-60.03 -10.61,-85.27 l -1380,-794.969 c -23.9,-13.801 -54.52,-20.883 -83.54,-20.883 m 531.87,1165.592 v 170.49 l 15.73,9.06 c 23.9,13.8 54.51,20.87 83.53,20.87 11.77,0 23.28,-1.16 33.98,-3.51 l 50.17,-164.46 -63.59,36.71 -119.82,-69.16"
         inkscape:connector-curvature="0" /></clipPath><linearGradient
       xlink:href="#linearGradient396"
       id="linearGradient428"
       spreadMethod="pad"
       gradientTransform="matrix(-3586.42,-178.42,-178.42,3586.42,5906.26,1677.06)"
       gradientUnits="userSpaceOnUse"
       y2="1566.994"
       x2="4989.5142"
       y1="1566.994"
       x1="2621.2493"><stop
         id="stop424"
         offset="0"
         style="stop-opacity:1;stop-color:#631544" /><stop
         id="stop426"
         offset="1"
         style="stop-opacity:1;stop-color:#821e44" /></linearGradient><clipPath
       id="clipPath440"
       clipPathUnits="userSpaceOnUse"><path
         id="path438"
         d="m 4336.31,1471.21 -314.63,181.64 v 396.73 l 119.82,69.16 63.59,-36.71 143.26,-469.66 335.27,193.38 116.14,-67.05 -463.45,-267.49"
         inkscape:connector-curvature="0" /></clipPath><linearGradient
       id="linearGradient446"
       spreadMethod="pad"
       gradientTransform="matrix(-3586.42,-178.42,-178.42,3586.42,5906.26,1677.06)"
       gradientUnits="userSpaceOnUse"
       y2="0"
       x2="1"
       y1="0"
       x1="0"><stop
         id="stop442"
         offset="0"
         style="stop-opacity:1;stop-color:#441234" /><stop
         id="stop444"
         offset="1"
         style="stop-opacity:1;stop-color:#501335" /></linearGradient><clipPath
       id="clipPath456"
       clipPathUnits="userSpaceOnUse"><path
         id="path454"
         d="m 4988.75,2158.53 c -4.91,0 -9.59,0.99 -13.09,3.01 l -133.32,76.97 v 37.3 l 165.61,-95.62 c 7.73,-4.46 6.76,-12.24 -2.16,-17.4 -4.88,-2.81 -11.12,-4.26 -17.04,-4.26"
         inkscape:connector-curvature="0" /></clipPath><linearGradient
       id="linearGradient462"
       spreadMethod="pad"
       gradientTransform="matrix(-3586.42,-178.42,-178.42,3586.42,5906.26,1677.06)"
       gradientUnits="userSpaceOnUse"
       y2="0"
       x2="1"
       y1="0"
       x1="0"><stop
         id="stop458"
         offset="0"
         style="stop-opacity:1;stop-color:#631544" /><stop
         id="stop460"
         offset="1"
         style="stop-opacity:1;stop-color:#821e44" /></linearGradient><clipPath
       id="clipPath472"
       clipPathUnits="userSpaceOnUse"><path
         id="path470"
         d="m 4348.35,1612.37 -143.26,469.66 -50.17,164.46 -61.72,202.33 -20.61,67.54 -50.91,29.39 v 111.83 c 0,40.13 -24.27,86.69 -54.3,104.36 -0.01,0.01 -0.02,0.01 -0.02,0.01 -0.04,0.03 -0.08,0.05 -0.12,0.07 -0.02,0.02 -0.04,0.03 -0.06,0.04 -0.03,0.02 -0.06,0.04 -0.09,0.05 -0.06,0.03 -0.11,0.06 -0.16,0.09 v 0 l -121.65,70.14 v 183.21 l -176.77,321.4 480.54,277.66 0.06,-0.06 c 4.28,2.53 9.15,3.87 14.45,3.87 6.65,0 13.97,-2.1 21.68,-6.55 l 602.21,-347.18 v 0 0 l -602.21,347.18 c -7.71,4.45 -15.03,6.55 -21.68,6.55 -5.3,0 -10.17,-1.34 -14.45,-3.87 l -0.06,0.06 -475.72,-274.89 v 0 c 3.66,1.7 7.7,2.59 12.03,2.59 6.64,0 13.96,-2.09 21.67,-6.54 l 602.2,-347.19 c 12.79,-7.38 24.52,-20.04 33.86,-35.2 l 477.82,276.72 v 0 c -0.04,0.06 -0.08,0.12 -0.11,0.18 -0.01,0.01 -0.02,0.02 -0.02,0.03 -9.17,14.68 -20.6,26.93 -33.03,34.21 30.17,-17.65 54.59,-64.42 54.59,-104.71 v -754.29 -129.71 -37.3 -307.82 c 0,-21.41 -6.94,-36.6 -17.93,-43.64 l 0.02,-0.08 -1.62,-0.94 -0.62,-0.35 -16.14,-9.31 -122.43,-70.62 -335.27,-193.38 m 439.36,1652.17 c -0.04,0.02 -0.07,0.04 -0.11,0.06 0.04,-0.02 0.07,-0.04 0.11,-0.06"
         inkscape:connector-curvature="0" /></clipPath><radialGradient
       id="radialGradient480"
       spreadMethod="pad"
       gradientTransform="matrix(2356.35,0,0,-2356.35,6549.69,2191.84)"
       gradientUnits="userSpaceOnUse"
       r="1"
       cy="0"
       cx="0"
       fy="0"
       fx="0"><stop
         id="stop474"
         offset="0"
         style="stop-opacity:1;stop-color:#58c9ec" /><stop
         id="stop476"
         offset="0.445671"
         style="stop-opacity:1;stop-color:#3674bf" /><stop
         id="stop478"
         offset="1"
         style="stop-opacity:1;stop-color:#232c5e" /></radialGradient><clipPath
       id="clipPath490"
       clipPathUnits="userSpaceOnUse"><path
         id="path488"
         d="m 4309.23,1613.09 -602.2,347.18 c -30.33,17.51 -54.9,64.46 -54.9,104.88 v 1229.11 c 0,40.43 24.57,59.01 54.9,41.51 l 602.2,-347.19 c 30.32,-17.5 54.9,-64.45 54.9,-104.87 V 1654.59 c 0,-40.42 -24.58,-59 -54.9,-41.5 z"
         inkscape:connector-curvature="0" /></clipPath><linearGradient
       id="linearGradient498"
       spreadMethod="pad"
       gradientTransform="matrix(1261.3,-1012.66,-246.347,-1314.16,3413.79,2951.6)"
       gradientUnits="userSpaceOnUse"
       y2="0"
       x2="1"
       y1="0"
       x1="0"><stop
         id="stop492"
         offset="0"
         style="stop-opacity:1;stop-color:#58c9ec" /><stop
         id="stop494"
         offset="0.445671"
         style="stop-opacity:1;stop-color:#3674bf" /><stop
         id="stop496"
         offset="1"
         style="stop-opacity:1;stop-color:#283476" /></linearGradient><clipPath
       id="clipPath508"
       clipPathUnits="userSpaceOnUse"><path
         id="path506"
         d="m 4346.08,2971.96 c -9.34,15.17 -24.06,26.09 -36.85,33.48 l -602.2,347.18 c -2.07,1.2 -4.1,2.16 -6.1,3.01 l -27.6,-15.91 v 0 l 475.72,274.89 0.06,-0.06 c 4.28,2.53 9.15,3.87 14.45,3.87 6.65,0 13.97,-2.1 21.68,-6.55 l 602.21,-347.18 v 0 c 0.05,-0.03 0.1,-0.06 0.15,-0.09 0.04,-0.02 0.07,-0.04 0.11,-0.06 0.01,-0.01 0.03,-0.01 0.04,-0.02 12.43,-7.28 23.86,-19.53 33.03,-34.21 -2.6,4.16 -5.42,8.04 -8.34,11.75 l -466.36,-270.1 m -269.59,363.35 -54.81,-31.64 326.69,-188.62 211.61,122.16 -6.48,3.74 55.28,31.92 -43.34,25.02 6.64,3.84 -7.12,4.1 7.12,4.11 -7.11,4.1 7.11,4.1 -326.69,188.61 -211.61,-122.16 7.11,-4.1 -7.11,-4.11 7.12,-4.1 -7.12,-4.11 7.11,-4.1 -7.11,-4.1 42.71,-24.66 m 744.42,-105.21 c -0.04,0.06 -0.08,0.12 -0.11,0.18 0.03,-0.06 0.07,-0.12 0.11,-0.18 v 0"
         inkscape:connector-curvature="0" /></clipPath><linearGradient
       id="linearGradient516"
       spreadMethod="pad"
       gradientTransform="matrix(1980.57,-386.828,-386.828,-1980.57,3554.26,3422.75)"
       gradientUnits="userSpaceOnUse"
       y2="0"
       x2="1"
       y1="0"
       x1="0"><stop
         id="stop510"
         offset="0"
         style="stop-opacity:1;stop-color:#58c9ec" /><stop
         id="stop512"
         offset="0.515044"
         style="stop-opacity:1;stop-color:#3674bf" /><stop
         id="stop514"
         offset="1"
         style="stop-opacity:1;stop-color:#283476" /></linearGradient><clipPath
       id="clipPath526"
       clipPathUnits="userSpaceOnUse"><path
         id="path524"
         d="m 3668.83,3337.14 -0.32,-0.19 0.01,-0.02 z"
         inkscape:connector-curvature="0" /></clipPath><linearGradient
       id="linearGradient534"
       spreadMethod="pad"
       gradientTransform="matrix(0.480178,-0.0937842,-0.0937842,-0.480178,3668.5,3337.07)"
       gradientUnits="userSpaceOnUse"
       y2="0"
       x2="1"
       y1="0"
       x1="0"><stop
         id="stop528"
         offset="0"
         style="stop-opacity:1;stop-color:#58c9ec" /><stop
         id="stop530"
         offset="0.515044"
         style="stop-opacity:1;stop-color:#3674bf" /><stop
         id="stop532"
         offset="1"
         style="stop-opacity:1;stop-color:#283476" /></linearGradient><clipPath
       id="clipPath546"
       clipPathUnits="userSpaceOnUse"><path
         id="path544"
         d="m 3668.83,3353.99 -0.32,-0.18 0.01,-0.01 z"
         inkscape:connector-curvature="0" /></clipPath><linearGradient
       id="linearGradient554"
       spreadMethod="pad"
       gradientTransform="matrix(0.480178,-0.0937842,-0.0937842,-0.480178,3668.5,3353.93)"
       gradientUnits="userSpaceOnUse"
       y2="0"
       x2="1"
       y1="0"
       x1="0"><stop
         id="stop548"
         offset="0"
         style="stop-opacity:1;stop-color:#58c9ec" /><stop
         id="stop550"
         offset="0.515044"
         style="stop-opacity:1;stop-color:#3674bf" /><stop
         id="stop552"
         offset="1"
         style="stop-opacity:1;stop-color:#283476" /></linearGradient><clipPath
       id="clipPath580"
       clipPathUnits="userSpaceOnUse"><path
         id="path578"
         d="m 3489.58,983.852 -658.25,380.048 113.09,65.28 545.49,-314.48 c 7.72,-4.46 15.07,-6.57 21.73,-6.57 6.56,0 12.46,2.05 17.39,5.92 l 331.07,190.96 92.94,-53.67 -463.46,-267.488"
         inkscape:connector-curvature="0" /></clipPath><linearGradient
       id="linearGradient586"
       spreadMethod="pad"
       gradientTransform="matrix(-3586.42,-178.42,-178.42,3586.42,5906.26,1677.06)"
       gradientUnits="userSpaceOnUse"
       y2="1206.516"
       x2="3953.04"
       y1="1206.516"
       x1="2831.3301"><stop
         id="stop582"
         offset="0"
         style="stop-opacity:1;stop-color:#441234" /><stop
         id="stop584"
         offset="1"
         style="stop-opacity:1;stop-color:#501335" /></linearGradient><clipPath
       id="clipPath596"
       clipPathUnits="userSpaceOnUse"><path
         id="path594"
         d="m 3529.03,1114.05 c 9.66,7.58 15.62,22.16 15.62,42.04 v 1226.07 c 0,23.31 -8.19,48.79 -20.94,69.53 l 476.6,276 v 0 0 c -0.1,0.15 -0.19,0.31 -0.29,0.46 -9.08,14.47 -20.36,26.57 -32.64,33.79 30.03,-17.67 54.3,-64.23 54.3,-104.36 v -111.83 -138.22 -187.46 -170.49 -396.73 -221.33 c 0,-21.36 -6.92,-36.51 -17.89,-43.53 l 0.03,-0.08 -1.62,-0.94 -0.61,-0.35 -141.49,-81.61 -331.07,-190.96 m -37.62,1371.84 c -0.01,0.01 -0.02,0.01 -0.02,0.01 0,0 0.01,0 0.02,-0.01 m -0.14,0.09 c -0.02,0.01 -0.04,0.02 -0.06,0.03 0.02,-0.01 0.04,-0.02 0.06,-0.03 m -0.15,0.09 c -0.04,0.02 -0.07,0.04 -0.11,0.06 0.04,-0.02 0.07,-0.04 0.11,-0.06 m -0.16,0.09 c -0.06,0.04 -0.11,0.07 -0.17,0.1 0.06,-0.03 0.11,-0.06 0.17,-0.1 m -0.17,0.1 c -0.06,0.04 -0.11,0.07 -0.17,0.11 0.06,-0.04 0.12,-0.07 0.17,-0.11 m -0.19,0.12 c -0.05,0.03 -0.1,0.06 -0.15,0.09 0.05,-0.03 0.1,-0.06 0.15,-0.09 m -0.18,0.1 c -0.04,0.03 -0.09,0.06 -0.14,0.09 0.05,-0.03 0.09,-0.06 0.14,-0.09 m -0.17,0.11 c -0.05,0.02 -0.1,0.05 -0.15,0.08 0.05,-0.03 0.1,-0.06 0.15,-0.08 m -0.17,0.1 c -0.06,0.03 -0.12,0.06 -0.17,0.09 0.05,-0.03 0.11,-0.06 0.17,-0.09 m 477.28,275.26 c -0.04,0.03 -0.08,0.05 -0.12,0.07 0.04,-0.02 0.08,-0.04 0.12,-0.07 m -0.18,0.11 c -0.03,0.02 -0.06,0.04 -0.09,0.05 0.03,-0.01 0.06,-0.03 0.09,-0.05 m -0.25,0.14 v 0 l -600.71,346.32 c -7.69,4.44 -14.99,6.53 -21.62,6.53 -5.29,0 -10.15,-1.33 -14.43,-3.86 l -0.06,0.07 -473.89,-273.83 c -0.01,-0.01 -0.02,-0.02 -0.04,-0.02 l 473.93,273.85 0.06,-0.07 c 4.28,2.53 9.14,3.86 14.43,3.86 6.63,0 13.93,-2.09 21.62,-6.53 l 479.06,-276.18 121.65,-70.14 v 0"
         inkscape:connector-curvature="0" /></clipPath><radialGradient
       id="radialGradient604"
       spreadMethod="pad"
       gradientTransform="matrix(2350.5,0,0,-2350.5,5724.8,1692.02)"
       gradientUnits="userSpaceOnUse"
       r="1"
       cy="0"
       cx="0"
       fy="0"
       fx="0"><stop
         id="stop598"
         offset="0"
         style="stop-opacity:1;stop-color:#58c9ec" /><stop
         id="stop600"
         offset="0.445671"
         style="stop-opacity:1;stop-color:#3674bf" /><stop
         id="stop602"
         offset="1"
         style="stop-opacity:1;stop-color:#232c5e" /></radialGradient><clipPath
       id="clipPath614"
       clipPathUnits="userSpaceOnUse"><path
         id="path612"
         d="m 3511.64,1108.13 c -6.66,0 -14.01,2.11 -21.73,6.57 l -545.49,314.48 -55.24,31.84 c -23.49,13.57 -43.53,44.89 -51.3,77.09 -2.22,9.24 -3.44,18.55 -3.44,27.53 v 156.44 157.63 l 7.5,4.33 122.26,-161.05 251.17,-125.39 v -106.19 l 212.92,121.93 39.38,-22.74 c 2.73,-1.57 5.32,-2.32 7.68,-2.32 6.85,0 11.65,6.33 11.65,16.93 v 41.75 104.23 6.17 0 0 0 c 0,0.05 0,0.1 0,0.15 0,0.02 0,0.04 0,0.05 0,0.04 0,0.07 -0.01,0.1 0,0.02 0,0.04 0,0.06 0,0.04 0,0.07 0,0.1 0,0.02 0,0.04 0,0.06 0,0.04 0,0.08 0,0.12 0,0.03 0,0.07 0,0.1 0,0.02 0,0.04 0,0.06 0,0.03 0,0.07 -0.01,0.1 0,0.01 0,0.02 0,0.04 0,0.04 0,0.07 0,0.11 v 0 c -0.33,11.11 -5.74,23.4 -13.17,31.01 -1.03,1.21 -4.08,4.32 -10.52,7.4 l -388.74,224.45 -163.13,94.18 c -2.72,1.57 -5.32,2.32 -7.67,2.32 -6.86,0 -11.66,-6.34 -11.66,-16.94 v -25.34 l -57.65,-33.29 v 749.51 c 0,23.79 8.53,40 21.74,45.7 0.02,0 0.03,0.01 0.04,0.02 l -0.65,-0.38 v 0 c 3.66,1.69 7.69,2.58 12,2.58 6.63,0 13.93,-2.09 21.61,-6.53 l 600.73,-346.32 v 0 c 0.05,-0.03 0.11,-0.06 0.17,-0.09 0.01,-0.01 0.01,-0.01 0.02,-0.02 0.05,-0.03 0.1,-0.06 0.15,-0.08 0.01,-0.01 0.02,-0.02 0.03,-0.02 0.05,-0.03 0.1,-0.06 0.14,-0.09 0.01,0 0.02,-0.01 0.03,-0.01 0.05,-0.03 0.1,-0.06 0.15,-0.09 0.01,-0.01 0.01,-0.01 0.02,-0.01 0.06,-0.04 0.11,-0.07 0.17,-0.11 v 0 c 0.06,-0.03 0.11,-0.06 0.17,-0.1 0.02,-0.01 0.03,-0.02 0.05,-0.03 0.04,-0.02 0.07,-0.04 0.11,-0.06 0.03,-0.02 0.06,-0.04 0.09,-0.06 0.02,-0.01 0.04,-0.02 0.06,-0.03 0.04,-0.03 0.08,-0.05 0.12,-0.08 0,0 0.01,0 0.02,-0.01 12.17,-7.47 23.33,-19.7 32.27,-34.22 l 0.03,0.02 c 12.75,-20.74 20.94,-46.22 20.94,-69.53 V 1156.09 c 0,-19.88 -5.96,-34.46 -15.62,-42.04 -4.93,-3.87 -10.83,-5.92 -17.39,-5.92"
         inkscape:connector-curvature="0" /></clipPath><linearGradient
       id="linearGradient622"
       spreadMethod="pad"
       gradientTransform="matrix(1258.17,-1010.15,-245.735,-1310.9,2596.69,2449.89)"
       gradientUnits="userSpaceOnUse"
       y2="0"
       x2="1"
       y1="0"
       x1="0"><stop
         id="stop616"
         offset="0"
         style="stop-opacity:1;stop-color:#58c9ec" /><stop
         id="stop618"
         offset="0.445671"
         style="stop-opacity:1;stop-color:#3674bf" /><stop
         id="stop620"
         offset="1"
         style="stop-opacity:1;stop-color:#283476" /></linearGradient><clipPath
       id="clipPath632"
       clipPathUnits="userSpaceOnUse"><path
         id="path630"
         d="m 3526.65,2470.19 c -9.3,15.13 -23.99,26.04 -36.74,33.4 l -600.73,346.33 c -2.05,1.19 -4.07,2.15 -6.07,3.01 l -27.54,-15.88 v 0 l 0.65,0.38 473.89,273.83 0.06,-0.07 c 4.28,2.53 9.14,3.86 14.43,3.86 6.63,0 13.93,-2.09 21.62,-6.53 l 600.71,-346.32 v 0 c 0.05,-0.03 0.1,-0.06 0.16,-0.09 0.03,-0.01 0.06,-0.03 0.09,-0.05 0.02,-0.01 0.04,-0.02 0.06,-0.04 0.04,-0.02 0.08,-0.04 0.12,-0.07 0,0 0.01,0 0.02,-0.01 12.28,-7.22 23.56,-19.32 32.64,-33.79 -2.55,4.06 -5.3,7.85 -8.17,11.48 l -465.2,-269.44 m -154.05,321.85 111.18,-64.19 36.65,21.16 36.65,21.16 -111.18,64.19 69.11,39.9 -236.31,14.31 24.81,-136.42 69.09,39.89"
         inkscape:connector-curvature="0" /></clipPath><linearGradient
       id="linearGradient640"
       spreadMethod="pad"
       gradientTransform="matrix(1975.66,-385.868,-385.868,-1975.66,2736.81,2919.87)"
       gradientUnits="userSpaceOnUse"
       y2="0"
       x2="1"
       y1="0"
       x1="0"><stop
         id="stop634"
         offset="0"
         style="stop-opacity:1;stop-color:#58c9ec" /><stop
         id="stop636"
         offset="0.515044"
         style="stop-opacity:1;stop-color:#3674bf" /><stop
         id="stop638"
         offset="1"
         style="stop-opacity:1;stop-color:#283476" /></linearGradient><clipPath
       id="clipPath650"
       clipPathUnits="userSpaceOnUse"><path
         id="path648"
         d="m 2851.09,2834.47 -0.31,-0.19 v -0.02 z"
         inkscape:connector-curvature="0" /></clipPath><linearGradient
       id="linearGradient658"
       spreadMethod="pad"
       gradientTransform="matrix(0.478987,-0.0935514,-0.0935514,-0.478987,2850.76,2834.4)"
       gradientUnits="userSpaceOnUse"
       y2="0"
       x2="1"
       y1="0"
       x1="0"><stop
         id="stop652"
         offset="0"
         style="stop-opacity:1;stop-color:#58c9ec" /><stop
         id="stop654"
         offset="0.515044"
         style="stop-opacity:1;stop-color:#3674bf" /><stop
         id="stop656"
         offset="1"
         style="stop-opacity:1;stop-color:#283476" /></linearGradient><clipPath
       id="clipPath670"
       clipPathUnits="userSpaceOnUse"><path
         id="path668"
         d="m 2851.09,2851.28 -0.31,-0.18 v -0.02 z"
         inkscape:connector-curvature="0" /></clipPath><linearGradient
       id="linearGradient678"
       spreadMethod="pad"
       gradientTransform="matrix(0.478987,-0.0935514,-0.0935514,-0.478987,2850.76,2851.22)"
       gradientUnits="userSpaceOnUse"
       y2="0"
       x2="1"
       y1="0"
       x1="0"><stop
         id="stop672"
         offset="0"
         style="stop-opacity:1;stop-color:#58c9ec" /><stop
         id="stop674"
         offset="0.515044"
         style="stop-opacity:1;stop-color:#3674bf" /><stop
         id="stop676"
         offset="1"
         style="stop-opacity:1;stop-color:#283476" /></linearGradient><clipPath
       id="clipPath708"
       clipPathUnits="userSpaceOnUse"><path
         id="path706"
         d="m 3215.37,1597.6 -251.17,125.39 -122.26,161.05 82.69,47.75 v -0.01 l 401.33,-228.88 -110.59,-64.14 v -41.16 m 258.85,191.28 c 0,0 -3.43,4.28 -10.93,7.94 l -386.22,222.98 h 0.01 l -2.54,1.46 0.01,0.01 388.74,-224.45 c 6.44,-3.08 9.49,-6.19 10.52,-7.4 0.28,-0.34 0.41,-0.54 0.41,-0.54 v 0"
         inkscape:connector-curvature="0" /></clipPath><radialGradient
       id="radialGradient716"
       spreadMethod="pad"
       gradientTransform="matrix(849.393,0,0,-849.393,3506.83,1540.32)"
       gradientUnits="userSpaceOnUse"
       r="1"
       cy="0"
       cx="0"
       fy="0"
       fx="0"><stop
         id="stop710"
         offset="0"
         style="stop-opacity:1;stop-color:#58c9ec" /><stop
         id="stop712"
         offset="0.445671"
         style="stop-opacity:1;stop-color:#3674bf" /><stop
         id="stop714"
         offset="1"
         style="stop-opacity:1;stop-color:#232c5e" /></radialGradient><clipPath
       id="clipPath726"
       clipPathUnits="userSpaceOnUse"><path
         id="path724"
         d="m 2700.41,1802.33 v 147.34 l 224.22,129.45 v -147.34 l -82.69,-47.74 -7.5,-4.33 -134.03,-77.38 m 376.66,217.47 -127.59,73.66 51.71,-29.85 14.34,-8.28 59.01,-34.07 2.54,-1.46"
         inkscape:connector-curvature="0" /></clipPath><radialGradient
       id="radialGradient732"
       spreadMethod="pad"
       gradientTransform="matrix(401.962,232.073,0,-535.949,2662.67,2166.61)"
       gradientUnits="userSpaceOnUse"
       r="1"
       cy="0"
       cx="0"
       fy="0"
       fx="0"><stop
         id="stop728"
         offset="0"
         style="stop-opacity:1;stop-color:#58c9ec" /><stop
         id="stop730"
         offset="1"
         style="stop-opacity:1;stop-color:#232c5e" /></radialGradient><clipPath
       id="clipPath746"
       clipPathUnits="userSpaceOnUse"><path
         id="path744"
         d="m 3487,1757.36 c 0,6.64 -1.94,13.76 -5.03,20.12 L 3226.84,1629.51 V 1482.16 L 3487,1632.37 Z"
         inkscape:connector-curvature="0" /></clipPath><radialGradient
       id="radialGradient752"
       spreadMethod="pad"
       gradientTransform="matrix(957.228,-450.229,-450.229,-957.228,3067.97,2581.37)"
       gradientUnits="userSpaceOnUse"
       r="1"
       cy="0"
       cx="0"
       fy="0"
       fx="0"><stop
         id="stop748"
         offset="0"
         style="stop-opacity:1;stop-color:#58c9ec" /><stop
         id="stop750"
         offset="1"
         style="stop-opacity:1;stop-color:#232c5e" /></radialGradient><clipPath
       id="clipPath762"
       clipPathUnits="userSpaceOnUse"><path
         id="path760"
         d="m 3259.37,1674.3 -556.25,321.17 c -4.88,2.81 -9.27,2.86 -12.67,0.86 l -0.02,0.13 -16.93,-10 10.66,-0.97 c -0.23,-1.45 -0.37,-2.98 -0.37,-4.64 V 1828.7 c 0,-14.23 8.65,-30.76 19.33,-36.93 l 552.02,-318.71 v -13.41 l 16.85,9.94 -0.17,0.05 c 4.17,2.32 6.88,7.71 6.88,15.59 v 152.15 c 0,14.23 -8.66,30.76 -19.33,36.92 z"
         inkscape:connector-curvature="0" /></clipPath><linearGradient
       id="linearGradient770"
       spreadMethod="pad"
       gradientTransform="matrix(900.875,-266.863,-266.863,-900.875,2616.31,1835.31)"
       gradientUnits="userSpaceOnUse"
       y2="0"
       x2="1"
       y1="0"
       x1="0"><stop
         id="stop764"
         offset="0"
         style="stop-opacity:1;stop-color:#58c9ec" /><stop
         id="stop766"
         offset="0.740647"
         style="stop-opacity:1;stop-color:#283476" /><stop
         id="stop768"
         offset="1"
         style="stop-opacity:1;stop-color:#283476" /></linearGradient><clipPath
       id="clipPath780"
       clipPathUnits="userSpaceOnUse"><path
         id="path778"
         d="m 3242.33,1460.56 -556.25,321.16 c -10.67,6.16 -19.33,22.69 -19.33,36.92 v 152.15 c 0,14.24 8.66,20.78 19.33,14.62 l 556.25,-321.17 c 10.67,-6.16 19.33,-22.69 19.33,-36.92 v -152.15 c 0,-14.24 -8.66,-20.77 -19.33,-14.61 z"
         inkscape:connector-curvature="0" /></clipPath><linearGradient
       id="linearGradient788"
       spreadMethod="pad"
       gradientTransform="matrix(871.904,0,0,-871.904,2666.75,1722.98)"
       gradientUnits="userSpaceOnUse"
       y2="0"
       x2="1"
       y1="0"
       x1="0"><stop
         id="stop782"
         offset="0"
         style="stop-opacity:1;stop-color:#58c9ec" /><stop
         id="stop784"
         offset="0.445671"
         style="stop-opacity:1;stop-color:#3674bf" /><stop
         id="stop786"
         offset="1"
         style="stop-opacity:1;stop-color:#283476" /></linearGradient><clipPath
       id="clipPath804"
       clipPathUnits="userSpaceOnUse"><path
         id="path802"
         d="m 3325.96,1702.9 -401.33,228.88 152.45,88.02 386.21,-222.98 c 7.5,-3.66 10.93,-7.94 10.93,-7.94 l -26.2,-15.19 -122.06,-70.79"
         inkscape:connector-curvature="0" /></clipPath><radialGradient
       id="radialGradient812"
       spreadMethod="pad"
       gradientTransform="matrix(849.393,0,0,-849.393,3506.83,1540.32)"
       gradientUnits="userSpaceOnUse"
       r="1"
       cy="0"
       cx="0"
       fy="0"
       fx="0"><stop
         id="stop806"
         offset="0"
         style="stop-opacity:1;stop-color:#3178af" /><stop
         id="stop808"
         offset="0.445671"
         style="stop-opacity:1;stop-color:#24478a" /><stop
         id="stop810"
         offset="1"
         style="stop-opacity:1;stop-color:#1f234d" /></radialGradient><clipPath
       id="clipPath822"
       clipPathUnits="userSpaceOnUse"><path
         id="path820"
         d="m 2924.63,1931.78 v 147.34 h 0.01 l 24.84,14.34 127.59,-73.66 -152.44,-88.01"
         inkscape:connector-curvature="0" /></clipPath><radialGradient
       id="radialGradient828"
       spreadMethod="pad"
       gradientTransform="matrix(401.962,232.073,0,-535.949,2662.67,2166.61)"
       gradientUnits="userSpaceOnUse"
       r="1"
       cy="0"
       cx="0"
       fy="0"
       fx="0"><stop
         id="stop824"
         offset="0"
         style="stop-opacity:1;stop-color:#3178af" /><stop
         id="stop826"
         offset="1"
         style="stop-opacity:1;stop-color:#1f234d" /></radialGradient><clipPath
       id="clipPath840"
       clipPathUnits="userSpaceOnUse"><path
         id="path838"
         d="m 4553.5,3240.95 -36.24,20.93 54.82,31.64 -7.11,4.1 0.47,0.27 43.34,-25.02 -55.28,-31.92"
         inkscape:connector-curvature="0" /></clipPath><linearGradient
       id="linearGradient848"
       spreadMethod="pad"
       gradientTransform="matrix(1980.57,-386.828,-386.828,-1980.57,3554.26,3422.75)"
       gradientUnits="userSpaceOnUse"
       y2="0"
       x2="1"
       y1="0"
       x1="0"><stop
         id="stop842"
         offset="0"
         style="stop-opacity:1;stop-color:#3178af" /><stop
         id="stop844"
         offset="0.515044"
         style="stop-opacity:1;stop-color:#24478a" /><stop
         id="stop846"
         offset="1"
         style="stop-opacity:1;stop-color:#23285a" /></linearGradient><clipPath
       id="clipPath880"
       clipPathUnits="userSpaceOnUse"><path
         id="path878"
         d="m 2949.48,2093.46 -208.06,-120.11 517.95,-299.05 c 0,0 4.5,-2.7 7.11,-5.9 l 207.74,120.48 c 0,0 -2.47,3.61 -11.71,8.38 l -513.03,296.2"
         inkscape:connector-curvature="0" /></clipPath><clipPath
       id="clipPath948"
       clipPathUnits="userSpaceOnUse"><path
         id="path946"
         d="m 3483.78,2727.85 -111.18,64.19 -69.09,-39.89 -24.81,136.42 236.31,-14.31 -69.11,-39.9 111.18,-64.19 -36.65,-21.16 -36.65,-21.16"
         inkscape:connector-curvature="0" /></clipPath><linearGradient
       id="linearGradient956"
       spreadMethod="pad"
       gradientTransform="matrix(1975.66,-385.868,-385.868,-1975.66,2736.81,2919.87)"
       gradientUnits="userSpaceOnUse"
       y2="0"
       x2="1"
       y1="0"
       x1="0"><stop
         id="stop950"
         offset="0"
         style="stop-opacity:1;stop-color:#68ceea" /><stop
         id="stop952"
         offset="0.515044"
         style="stop-opacity:1;stop-color:#5091cc" /><stop
         id="stop954"
         offset="1"
         style="stop-opacity:1;stop-color:#435298" /></linearGradient><linearGradient
       gradientUnits="userSpaceOnUse"
       y2="1492.49"
       x2="5611.0498"
       y1="1505.9729"
       x1="2033.6711"
       id="linearGradient1910"
       xlink:href="#linearGradient1906" /><linearGradient
       inkscape:collect="always"
       xlink:href="#linearGradient5520"
       id="linearGradient5522"
       x1="2029.7183"
       y1="2260.2244"
       x2="5601.5132"
       y2="210.4361"
       gradientUnits="userSpaceOnUse"
       gradientTransform="translate(-1752.7859,808.97812)" /><linearGradient
       inkscape:collect="always"
       xlink:href="#linearGradient1906"
       id="linearGradient8251"
       gradientUnits="userSpaceOnUse"
       x1="2033.6711"
       y1="1505.9729"
       x2="5611.0498"
       y2="1492.49" /><linearGradient
       inkscape:collect="always"
       xlink:href="#linearGradient1906"
       id="linearGradient8253"
       gradientUnits="userSpaceOnUse"
       x1="2033.6711"
       y1="1505.9729"
       x2="5611.0498"
       y2="1492.49" /></defs><g
     transform="matrix(1.3333333,0,0,-1.3333333,-10.484904,593.01633)"
     id="g10"><g
       transform="matrix(0.1,0,0,0.1,-18.876156,2.0224453)"
       id="g12"><path
         id="path14"
         style="fill:url(#linearGradient5522);fill-opacity:1;fill-rule:nonzero;stroke:none"
         d="m 1355.3141,1032.1261 -1053.35002,608.774 c -51.2,29.558 -44.78,81.187 14.34,115.316 l 2254.30002,1301.532 c 59.12,34.13 148.55,37.83 199.74,8.27 l 1053.36,-608.77 c 51.19,-29.55 44.77,-81.18 -14.35,-115.31 l -2254.3,-1301.53 c -59.12,-34.129 -148.54,-37.84 -199.74,-8.282"
         inkscape:connector-curvature="0" /><g
         id="g368" /><g
         id="g384"
         transform="translate(-1752.7859,808.97812)"><g
           clip-path="url(#clipPath390)"
           id="g386"><path
             id="path398"
             style="fill:#9917b6;fill-opacity:1;fill-rule:nonzero;stroke:none"
             d="m 3190.56,444.41 c -32.29,0 -63.11,6.512 -86.14,19.809 l -935.49,540.671 -93.09,53.8 c -19.74,11.4 -30.74,26.11 -33.51,41.81 l -0.1,-0.05 -20.85,104.12 c 3.47,-14.91 14.51,-28.8 33.37,-39.69 L 3108.1,556.109 c 23.2,-13.39 54.23,-19.949 86.75,-19.949 39.25,0 80.66,9.559 112.99,28.231 l 2254.3,1301.529 c 27.37,15.79 43.44,35.34 47.74,54.71 l -21.16,-100.72 -0.13,0.16 c -3.95,-19.56 -19.82,-39.34 -47.44,-55.29 L 5457.97,1716.76 3302.75,472.441 c -32.11,-18.543 -73.22,-28.031 -112.19,-28.031"
             inkscape:connector-curvature="0" /></g></g><g
         style="fill:url(#linearGradient1910);fill-opacity:1"
         id="g400"
         transform="translate(-1752.7859,808.97812)"><g
           style="fill:url(#linearGradient8253);fill-opacity:1"
           clip-path="url(#clipPath406)"
           id="g402"><path
             id="path414"
             style="fill:url(#linearGradient8251);fill-opacity:1;fill-rule:nonzero;stroke:none"
             d="m 3194.85,536.16 c -32.52,0 -63.55,6.559 -86.75,19.949 L 2054.75,1164.88 c -18.86,10.89 -29.9,24.78 -33.37,39.69 -5.94,25.54 10.38,54.08 47.71,75.63 l 765.35,441.88 v -156.44 c 0,-8.98 1.22,-18.29 3.44,-27.53 l -180.47,-103.96 c -43.71,-25.24 -48.46,-63.41 -10.61,-85.27 l 778.87,-450.13 c 17.15,-9.898 40.09,-14.762 64.14,-14.762 29.02,0 59.64,7.082 83.54,20.883 l 1380,794.969 c 43.72,25.24 48.46,63.42 10.61,85.27 l -157.91,91.26 16.14,9.31 0.62,0.35 1.62,0.94 -0.02,0.08 c 10.99,7.04 17.93,22.23 17.93,43.64 v 307.82 l 133.32,-76.97 c 3.5,-2.02 8.18,-3.01 13.09,-3.01 5.92,0 12.16,1.45 17.04,4.26 8.92,5.16 9.89,12.94 2.16,17.4 l -165.61,95.62 v 129.71 l 734.15,-424.29 c 27.49,-15.87 38.37,-38.12 33.39,-60.6 -4.3,-19.37 -20.37,-38.92 -47.74,-54.71 L 3307.84,564.391 C 3275.51,545.719 3234.1,536.16 3194.85,536.16 m 826.83,1683.91 v 187.46 l 71.52,41.29 61.72,-202.33 c -10.7,2.35 -22.21,3.51 -33.98,3.51 -29.02,0 -59.63,-7.07 -83.53,-20.87 l -15.73,-9.06"
             inkscape:connector-curvature="0" /></g></g><g
         id="g416"
         transform="translate(-1752.7859,808.97812)"><g
           clip-path="url(#clipPath422)"
           id="g418"><path
             id="path430"
             style="fill:#7b007d;fill-opacity:1;fill-rule:nonzero;stroke:none"
             d="m 3489.81,883.988 c -24.05,0 -46.99,4.864 -64.14,14.762 l -778.87,450.13 c -37.85,21.86 -33.1,60.03 10.61,85.27 l 180.47,103.96 c 7.77,-32.2 27.81,-63.52 51.3,-77.09 l 55.24,-31.84 -113.09,-65.28 658.25,-380.048 463.46,267.488 -92.94,53.67 141.49,81.61 0.61,0.35 1.62,0.94 -0.03,0.08 c 10.97,7.02 17.89,22.17 17.89,43.53 v 221.33 l 314.63,-181.64 463.45,267.49 -116.14,67.05 122.43,70.62 157.91,-91.26 c 37.85,-21.85 33.11,-60.03 -10.61,-85.27 l -1380,-794.969 c -23.9,-13.801 -54.52,-20.883 -83.54,-20.883 m 531.87,1165.592 v 170.49 l 15.73,9.06 c 23.9,13.8 54.51,20.87 83.53,20.87 11.77,0 23.28,-1.16 33.98,-3.51 l 50.17,-164.46 -63.59,36.71 -119.82,-69.16"
             inkscape:connector-curvature="0" /></g></g><path
         id="path432"
         style="fill:#ffffff;fill-opacity:0.98989898;fill-rule:nonzero;stroke:none"
         d="m 3809.3541,2701.5581 -2254.3,-1301.521 c -59.11,-34.129 -148.54,-37.84 -199.74,-8.278 l -1053.35002,608.769 c -17.8,10.27 -28.47,23.24 -32.55,37.2 -6.83,-23.59 3.72,-47.23 32.55,-63.87 l 1053.35002,-608.771 c 51.2,-29.558 140.63,-25.847 199.74,8.282 l 2254.3,1301.519 c 38.57,22.27 54.54,51.96 46.9,78.13 -5.3,-18.3 -21.07,-36.55 -46.9,-51.46"
         inkscape:connector-curvature="0" /><g
         id="g434"
         transform="translate(-1752.7859,808.97812)"><g
           clip-path="url(#clipPath440)"
           id="g436"><path
             id="path448"
             style="fill:#3e1244;fill-opacity:1;fill-rule:nonzero;stroke:none"
             d="m 4336.31,1471.21 -314.63,181.64 v 396.73 l 119.82,69.16 63.59,-36.71 143.26,-469.66 335.27,193.38 116.14,-67.05 -463.45,-267.49"
             inkscape:connector-curvature="0" /></g></g><g
         id="g450"
         transform="translate(-1752.7859,808.97812)"><g
           clip-path="url(#clipPath456)"
           id="g452"><path
             id="path464"
             style="fill:url(#linearGradient462);fill-opacity:1;fill-rule:nonzero;stroke:none"
             d="m 4988.75,2158.53 c -4.91,0 -9.59,0.99 -13.09,3.01 l -133.32,76.97 v 37.3 l 165.61,-95.62 c 7.73,-4.46 6.76,-12.24 -2.16,-17.4 -4.88,-2.81 -11.12,-4.26 -17.04,-4.26"
             inkscape:connector-curvature="0" /></g></g><g
         id="g466"
         transform="translate(-1752.7859,808.97812)"><g
           clip-path="url(#clipPath472)"
           id="g468"><path
             id="path482"
             style="fill:url(#radialGradient480);fill-opacity:1;fill-rule:nonzero;stroke:none"
             d="m 4348.35,1612.37 -143.26,469.66 -50.17,164.46 -61.72,202.33 -20.61,67.54 -50.91,29.39 v 111.83 c 0,40.13 -24.27,86.69 -54.3,104.36 -0.01,0.01 -0.02,0.01 -0.02,0.01 -0.04,0.03 -0.08,0.05 -0.12,0.07 -0.02,0.02 -0.04,0.03 -0.06,0.04 -0.03,0.02 -0.06,0.04 -0.09,0.05 -0.06,0.03 -0.11,0.06 -0.16,0.09 v 0 l -121.65,70.14 v 183.21 l -176.77,321.4 480.54,277.66 0.06,-0.06 c 4.28,2.53 9.15,3.87 14.45,3.87 6.65,0 13.97,-2.1 21.68,-6.55 l 602.21,-347.18 v 0 0 l -602.21,347.18 c -7.71,4.45 -15.03,6.55 -21.68,6.55 -5.3,0 -10.17,-1.34 -14.45,-3.87 l -0.06,0.06 -475.72,-274.89 v 0 c 3.66,1.7 7.7,2.59 12.03,2.59 6.64,0 13.96,-2.09 21.67,-6.54 l 602.2,-347.19 c 12.79,-7.38 24.52,-20.04 33.86,-35.2 l 477.82,276.72 v 0 c -0.04,0.06 -0.08,0.12 -0.11,0.18 -0.01,0.01 -0.02,0.02 -0.02,0.03 -9.17,14.68 -20.6,26.93 -33.03,34.21 30.17,-17.65 54.59,-64.42 54.59,-104.71 v -754.29 -129.71 -37.3 -307.82 c 0,-21.41 -6.94,-36.6 -17.93,-43.64 l 0.02,-0.08 -1.62,-0.94 -0.62,-0.35 -16.14,-9.31 -122.43,-70.62 -335.27,-193.38 m 439.36,1652.17 c -0.04,0.02 -0.07,0.04 -0.11,0.06 0.04,-0.02 0.07,-0.04 0.11,-0.06"
             inkscape:connector-curvature="0" /></g></g><g
         id="g484"
         transform="translate(-1752.7859,808.97812)"><g
           clip-path="url(#clipPath490)"
           id="g486"><path
             id="path500"
             style="fill:url(#linearGradient498);fill-opacity:1;fill-rule:nonzero;stroke:none"
             d="m 4309.23,1613.09 -602.2,347.18 c -30.33,17.51 -54.9,64.46 -54.9,104.88 v 1229.11 c 0,40.43 24.57,59.01 54.9,41.51 l 602.2,-347.19 c 30.32,-17.5 54.9,-64.45 54.9,-104.87 V 1654.59 c 0,-40.42 -24.58,-59 -54.9,-41.5"
             inkscape:connector-curvature="0" /></g></g><g
         id="g502"
         transform="translate(-1752.7859,808.97812)"><g
           clip-path="url(#clipPath508)"
           id="g504"><path
             id="path518"
             style="fill:url(#linearGradient516);fill-opacity:1;fill-rule:nonzero;stroke:none"
             d="m 4346.08,2971.96 c -9.34,15.17 -24.06,26.09 -36.85,33.48 l -602.2,347.18 c -2.07,1.2 -4.1,2.16 -6.1,3.01 l -27.6,-15.91 v 0 l 475.72,274.89 0.06,-0.06 c 4.28,2.53 9.15,3.87 14.45,3.87 6.65,0 13.97,-2.1 21.68,-6.55 l 602.21,-347.18 v 0 c 0.05,-0.03 0.1,-0.06 0.15,-0.09 0.04,-0.02 0.07,-0.04 0.11,-0.06 0.01,-0.01 0.03,-0.01 0.04,-0.02 12.43,-7.28 23.86,-19.53 33.03,-34.21 -2.6,4.16 -5.42,8.04 -8.34,11.75 l -466.36,-270.1 m -269.59,363.35 -54.81,-31.64 326.69,-188.62 211.61,122.16 -6.48,3.74 55.28,31.92 -43.34,25.02 6.64,3.84 -7.12,4.1 7.12,4.11 -7.11,4.1 7.11,4.1 -326.69,188.61 -211.61,-122.16 7.11,-4.1 -7.11,-4.11 7.12,-4.1 -7.12,-4.11 7.11,-4.1 -7.11,-4.1 42.71,-24.66 m 744.42,-105.21 c -0.04,0.06 -0.08,0.12 -0.11,0.18 0.03,-0.06 0.07,-0.12 0.11,-0.18 v 0"
             inkscape:connector-curvature="0" /></g></g><g
         id="g520"
         transform="translate(-1752.7859,808.97812)"><g
           clip-path="url(#clipPath526)"
           id="g522"><path
             id="path536"
             style="fill:url(#linearGradient534);fill-opacity:1;fill-rule:nonzero;stroke:none"
             d="m 3668.83,3337.14 -0.32,-0.19 0.01,-0.02 z"
             inkscape:connector-curvature="0" /></g></g><path
         id="path538"
         style="fill:#ffffff;fill-opacity:1;fill-rule:nonzero;stroke:none"
         d="m 2593.2941,3780.9381 c -9.34,15.17 -24.06,26.09 -36.85,33.48 l -602.2,347.18 c -2.07,1.2 -4.1,2.16 -6.1,3.01 l -27.6,-15.91 c 9.3,4.31 20.97,3.39 33.7,-3.95 l 602.2,-347.19 c 12.79,-7.38 24.52,-20.04 33.86,-35.2 l 477.82,276.72 c -2.63,4.23 -5.49,8.19 -8.47,11.96 l -466.36,-270.1"
         inkscape:connector-curvature="0" /><g
         id="g540"
         transform="translate(-1752.7859,808.97812)"><g
           clip-path="url(#clipPath546)"
           id="g542"><path
             id="path556"
             style="fill:url(#linearGradient554);fill-opacity:1;fill-rule:nonzero;stroke:none"
             d="m 3668.83,3353.99 -0.32,-0.18 0.01,-0.01 z"
             inkscape:connector-curvature="0" /></g></g><path
         id="path558"
         style="fill:#263570;fill-opacity:1;fill-rule:nonzero;stroke:none"
         d="m 1968.8541,4034.4181 -2.6,-0.67 c -2.69,-1.55 -4.29,-5.85 -4.29,-11.49 v -152.53 c 0,-12.49 7.77,-27.54 16.97,-32.85 l 557.64,-321.96 c 2.21,-1.27 5.34,-2.46 7.86,-1.02 2.69,1.55 4.29,5.85 4.29,11.5 v 152.53 c 0,12.49 -7.77,27.54 -16.97,32.85 l -557.64,321.96 c -1.48,0.85 -3.4,1.68 -5.26,1.68 z m 573.01,-530.82 c -3.24,0 -6.68,1 -10.11,2.98 l -557.64,321.96 c -12.21,7.05 -21.78,25.14 -21.78,41.19 v 152.53 c 0,9.27 3.31,16.49 9.1,19.83 5.06,2.93 11.29,2.57 17.49,-1.01 l 557.65,-321.96 c 12.21,-7.05 21.78,-25.14 21.78,-41.19 v -152.53 c 0,-9.26 -3.32,-16.5 -9.1,-19.84 -2.27,-1.31 -4.77,-1.96 -7.39,-1.96"
         inkscape:connector-curvature="0" /><path
         id="path560"
         style="fill:#263570;fill-opacity:1;fill-rule:nonzero;stroke:none"
         d="m 2294.3641,3792.6281 -78.04,45.06 c -3.8,2.2 -6.89,8.08 -6.89,13.14 0,5.07 3.09,7.4 6.89,5.21 l 78.04,-45.06 c 3.8,-2.2 6.88,-8.08 6.88,-13.15 0,-5.06 -3.08,-7.4 -6.88,-5.2"
         inkscape:connector-curvature="0" /><path
         id="path562"
         style="fill:#263570;fill-opacity:1;fill-rule:nonzero;stroke:none"
         d="m 1968.8541,3728.6181 -2.6,-0.67 c -2.69,-1.55 -4.29,-5.85 -4.29,-11.49 v -152.53 c 0,-12.49 7.77,-27.54 16.97,-32.85 l 557.64,-321.96 c 2.21,-1.27 5.34,-2.47 7.86,-1.02 2.69,1.55 4.29,5.85 4.29,11.5 v 152.53 c 0,12.49 -7.77,27.54 -16.97,32.85 l -557.64,321.96 c -1.48,0.85 -3.4,1.68 -5.26,1.68 z m 573.01,-530.82 c -3.24,0 -6.68,1 -10.11,2.98 l -557.64,321.96 c -12.21,7.05 -21.78,25.14 -21.78,41.19 v 152.53 c 0,9.26 3.31,16.49 9.1,19.83 5.06,2.92 11.29,2.58 17.49,-1.01 l 557.65,-321.96 c 12.21,-7.05 21.78,-25.14 21.78,-41.19 v -152.53 c 0,-9.27 -3.32,-16.5 -9.1,-19.84 -2.27,-1.31 -4.77,-1.96 -7.39,-1.96"
         inkscape:connector-curvature="0" /><path
         id="path564"
         style="fill:#263570;fill-opacity:1;fill-rule:nonzero;stroke:none"
         d="m 2294.3641,3486.8281 -78.04,45.06 c -3.8,2.19 -6.89,8.07 -6.89,13.14 0,5.07 3.09,7.4 6.89,5.21 l 78.04,-45.06 c 3.8,-2.2 6.88,-8.08 6.88,-13.15 0,-5.06 -3.08,-7.4 -6.88,-5.2"
         inkscape:connector-curvature="0" /><path
         id="path566"
         style="fill:#263570;fill-opacity:1;fill-rule:nonzero;stroke:none"
         d="m 1968.8541,3419.5581 -2.6,-0.66 c -2.69,-1.55 -4.29,-5.85 -4.29,-11.5 v -152.52 c 0,-12.49 7.77,-27.54 16.97,-32.86 l 557.64,-321.95 c 2.21,-1.27 5.34,-2.46 7.86,-1.02 2.69,1.55 4.29,5.84 4.29,11.5 v 152.53 c 0,12.49 -7.77,27.54 -16.97,32.85 l -557.64,321.95 c -1.48,0.85 -3.4,1.68 -5.26,1.68 z m 573.01,-530.82 c -3.24,0 -6.68,1.01 -10.11,2.99 l -557.64,321.95 c -12.21,7.05 -21.78,25.15 -21.78,41.2 v 152.52 c 0,9.27 3.31,16.5 9.1,19.84 5.06,2.93 11.29,2.58 17.49,-1.02 l 557.65,-321.95 c 12.21,-7.05 21.78,-25.15 21.78,-41.19 v -152.53 c 0,-9.27 -3.32,-16.5 -9.1,-19.84 -2.27,-1.31 -4.77,-1.97 -7.39,-1.97"
         inkscape:connector-curvature="0" /><path
         id="path568"
         style="fill:#263570;fill-opacity:1;fill-rule:nonzero;stroke:none"
         d="m 2294.3641,3177.7781 -78.04,45.05 c -3.8,2.2 -6.89,8.09 -6.89,13.15 0,5.07 3.09,7.4 6.89,5.2 l 78.04,-45.05 c 3.8,-2.2 6.88,-8.08 6.88,-13.15 0,-5.07 -3.08,-7.4 -6.88,-5.2"
         inkscape:connector-curvature="0" /><path
         id="path570"
         style="fill:#263570;fill-opacity:1;fill-rule:nonzero;stroke:none"
         d="m 1968.8541,3117.0081 -2.6,-0.66 c -2.69,-1.55 -4.29,-5.85 -4.29,-11.5 v -152.52 c 0,-12.5 7.77,-27.55 16.96,-32.86 l 557.65,-321.95 c 2.21,-1.27 5.34,-2.46 7.86,-1.02 2.69,1.55 4.29,5.85 4.29,11.5 v 152.53 c 0,12.5 -7.77,27.54 -16.96,32.84 l -557.65,321.95 c -1.48,0.86 -3.4,1.69 -5.26,1.69 z m 573.01,-530.82 c -3.24,0 -6.68,1.01 -10.11,2.99 l -557.64,321.96 c -12.21,7.04 -21.78,25.13 -21.78,41.19 v 152.52 c 0,9.26 3.32,16.5 9.1,19.84 5.08,2.93 11.3,2.56 17.5,-1.03 l 557.64,-321.95 c 12.21,-7.04 21.78,-25.14 21.78,-41.18 v -152.53 c 0,-9.27 -3.32,-16.5 -9.1,-19.84 -2.27,-1.31 -4.77,-1.97 -7.39,-1.97"
         inkscape:connector-curvature="0" /><path
         id="path572"
         style="fill:#243b74;fill-opacity:1;fill-rule:nonzero;stroke:none"
         d="m 2294.3641,2875.2281 -78.04,45.06 c -3.8,2.19 -6.89,8.07 -6.89,13.14 0,5.07 3.09,7.4 6.89,5.21 l 78.04,-45.06 c 3.8,-2.2 6.88,-8.09 6.88,-13.15 0,-5.07 -3.08,-7.4 -6.88,-5.2"
         inkscape:connector-curvature="0" /><g
         id="g574"
         transform="translate(-1752.7859,808.97812)"><g
           clip-path="url(#clipPath580)"
           id="g576"><path
             id="path588"
             style="fill:#3e1244;fill-opacity:1;fill-rule:nonzero;stroke:none"
             d="m 3489.58,983.852 -658.25,380.048 113.09,65.28 545.49,-314.48 c 7.72,-4.46 15.07,-6.57 21.73,-6.57 6.56,0 12.46,2.05 17.39,5.92 l 331.07,190.96 92.94,-53.67 -463.46,-267.488"
             inkscape:connector-curvature="0" /></g></g><g
         id="g590"
         transform="translate(-1752.7859,808.97812)"><g
           clip-path="url(#clipPath596)"
           id="g592"><path
             id="path606"
             style="fill:url(#radialGradient604);fill-opacity:1;fill-rule:nonzero;stroke:none"
             d="m 3529.03,1114.05 c 9.66,7.58 15.62,22.16 15.62,42.04 v 1226.07 c 0,23.31 -8.19,48.79 -20.94,69.53 l 476.6,276 v 0 0 c -0.1,0.15 -0.19,0.31 -0.29,0.46 -9.08,14.47 -20.36,26.57 -32.64,33.79 30.03,-17.67 54.3,-64.23 54.3,-104.36 v -111.83 -138.22 -187.46 -170.49 -396.73 -221.33 c 0,-21.36 -6.92,-36.51 -17.89,-43.53 l 0.03,-0.08 -1.62,-0.94 -0.61,-0.35 -141.49,-81.61 -331.07,-190.96 m -37.62,1371.84 c -0.01,0.01 -0.02,0.01 -0.02,0.01 0,0 0.01,0 0.02,-0.01 m -0.14,0.09 c -0.02,0.01 -0.04,0.02 -0.06,0.03 0.02,-0.01 0.04,-0.02 0.06,-0.03 m -0.15,0.09 c -0.04,0.02 -0.07,0.04 -0.11,0.06 0.04,-0.02 0.07,-0.04 0.11,-0.06 m -0.16,0.09 c -0.06,0.04 -0.11,0.07 -0.17,0.1 0.06,-0.03 0.11,-0.06 0.17,-0.1 m -0.17,0.1 c -0.06,0.04 -0.11,0.07 -0.17,0.11 0.06,-0.04 0.12,-0.07 0.17,-0.11 m -0.19,0.12 c -0.05,0.03 -0.1,0.06 -0.15,0.09 0.05,-0.03 0.1,-0.06 0.15,-0.09 m -0.18,0.1 c -0.04,0.03 -0.09,0.06 -0.14,0.09 0.05,-0.03 0.09,-0.06 0.14,-0.09 m -0.17,0.11 c -0.05,0.02 -0.1,0.05 -0.15,0.08 0.05,-0.03 0.1,-0.06 0.15,-0.08 m -0.17,0.1 c -0.06,0.03 -0.12,0.06 -0.17,0.09 0.05,-0.03 0.11,-0.06 0.17,-0.09 m 477.28,275.26 c -0.04,0.03 -0.08,0.05 -0.12,0.07 0.04,-0.02 0.08,-0.04 0.12,-0.07 m -0.18,0.11 c -0.03,0.02 -0.06,0.04 -0.09,0.05 0.03,-0.01 0.06,-0.03 0.09,-0.05 m -0.25,0.14 v 0 l -600.71,346.32 c -7.69,4.44 -14.99,6.53 -21.62,6.53 -5.29,0 -10.15,-1.33 -14.43,-3.86 l -0.06,0.07 -473.89,-273.83 c -0.01,-0.01 -0.02,-0.02 -0.04,-0.02 l 473.93,273.85 0.06,-0.07 c 4.28,2.53 9.14,3.86 14.43,3.86 6.63,0 13.93,-2.09 21.62,-6.53 l 479.06,-276.18 121.65,-70.14 v 0"
             inkscape:connector-curvature="0" /></g></g><g
         id="g608"
         transform="translate(-1752.7859,808.97812)"><g
           clip-path="url(#clipPath614)"
           id="g610"><path
             id="path624"
             style="fill:url(#linearGradient622);fill-opacity:1;fill-rule:nonzero;stroke:none"
             d="m 3511.64,1108.13 c -6.66,0 -14.01,2.11 -21.73,6.57 l -545.49,314.48 -55.24,31.84 c -23.49,13.57 -43.53,44.89 -51.3,77.09 -2.22,9.24 -3.44,18.55 -3.44,27.53 v 156.44 157.63 l 7.5,4.33 122.26,-161.05 251.17,-125.39 v -106.19 l 212.92,121.93 39.38,-22.74 c 2.73,-1.57 5.32,-2.32 7.68,-2.32 6.85,0 11.65,6.33 11.65,16.93 v 41.75 104.23 6.17 0 0 0 c 0,0.05 0,0.1 0,0.15 0,0.02 0,0.04 0,0.05 0,0.04 0,0.07 -0.01,0.1 0,0.02 0,0.04 0,0.06 0,0.04 0,0.07 0,0.1 0,0.02 0,0.04 0,0.06 0,0.04 0,0.08 0,0.12 0,0.03 0,0.07 0,0.1 0,0.02 0,0.04 0,0.06 0,0.03 0,0.07 -0.01,0.1 0,0.01 0,0.02 0,0.04 0,0.04 0,0.07 0,0.11 v 0 c -0.33,11.11 -5.74,23.4 -13.17,31.01 -1.03,1.21 -4.08,4.32 -10.52,7.4 l -388.74,224.45 -163.13,94.18 c -2.72,1.57 -5.32,2.32 -7.67,2.32 -6.86,0 -11.66,-6.34 -11.66,-16.94 v -25.34 l -57.65,-33.29 v 749.51 c 0,23.79 8.53,40 21.74,45.7 0.02,0 0.03,0.01 0.04,0.02 l -0.65,-0.38 v 0 c 3.66,1.69 7.69,2.58 12,2.58 6.63,0 13.93,-2.09 21.61,-6.53 l 600.73,-346.32 v 0 c 0.05,-0.03 0.11,-0.06 0.17,-0.09 0.01,-0.01 0.01,-0.01 0.02,-0.02 0.05,-0.03 0.1,-0.06 0.15,-0.08 0.01,-0.01 0.02,-0.02 0.03,-0.02 0.05,-0.03 0.1,-0.06 0.14,-0.09 0.01,0 0.02,-0.01 0.03,-0.01 0.05,-0.03 0.1,-0.06 0.15,-0.09 0.01,-0.01 0.01,-0.01 0.02,-0.01 0.06,-0.04 0.11,-0.07 0.17,-0.11 v 0 c 0.06,-0.03 0.11,-0.06 0.17,-0.1 0.02,-0.01 0.03,-0.02 0.05,-0.03 0.04,-0.02 0.07,-0.04 0.11,-0.06 0.03,-0.02 0.06,-0.04 0.09,-0.06 0.02,-0.01 0.04,-0.02 0.06,-0.03 0.04,-0.03 0.08,-0.05 0.12,-0.08 0,0 0.01,0 0.02,-0.01 12.17,-7.47 23.33,-19.7 32.27,-34.22 l 0.03,0.02 c 12.75,-20.74 20.94,-46.22 20.94,-69.53 V 1156.09 c 0,-19.88 -5.96,-34.46 -15.62,-42.04 -4.93,-3.87 -10.83,-5.92 -17.39,-5.92"
             inkscape:connector-curvature="0" /></g></g><g
         id="g626"
         transform="translate(-1752.7859,808.97812)"><g
           clip-path="url(#clipPath632)"
           id="g628"><path
             id="path642"
             style="fill:url(#linearGradient640);fill-opacity:1;fill-rule:nonzero;stroke:none"
             d="m 3526.65,2470.19 c -9.3,15.13 -23.99,26.04 -36.74,33.4 l -600.73,346.33 c -2.05,1.19 -4.07,2.15 -6.07,3.01 l -27.54,-15.88 v 0 l 0.65,0.38 473.89,273.83 0.06,-0.07 c 4.28,2.53 9.14,3.86 14.43,3.86 6.63,0 13.93,-2.09 21.62,-6.53 l 600.71,-346.32 v 0 c 0.05,-0.03 0.1,-0.06 0.16,-0.09 0.03,-0.01 0.06,-0.03 0.09,-0.05 0.02,-0.01 0.04,-0.02 0.06,-0.04 0.04,-0.02 0.08,-0.04 0.12,-0.07 0,0 0.01,0 0.02,-0.01 12.28,-7.22 23.56,-19.32 32.64,-33.79 -2.55,4.06 -5.3,7.85 -8.17,11.48 l -465.2,-269.44 m -154.05,321.85 111.18,-64.19 36.65,21.16 36.65,21.16 -111.18,64.19 69.11,39.9 -236.31,14.31 24.81,-136.42 69.09,39.89"
             inkscape:connector-curvature="0" /></g></g><g
         id="g644"
         transform="translate(-1752.7859,808.97812)"><g
           clip-path="url(#clipPath650)"
           id="g646"><path
             id="path660"
             style="fill:url(#linearGradient658);fill-opacity:1;fill-rule:nonzero;stroke:none"
             d="m 2851.09,2834.47 -0.31,-0.19 v -0.02 z"
             inkscape:connector-curvature="0" /></g></g><path
         id="path662"
         style="fill:#ffffff;fill-opacity:1;fill-rule:nonzero;stroke:none"
         d="m 1773.8641,3279.1681 c -9.3,15.13 -23.99,26.04 -36.74,33.4 l -600.73,346.33 c -2.05,1.19 -4.07,2.15 -6.07,3.01 l -27.54,-15.88 c 9.29,4.3 20.93,3.38 33.61,-3.95 l 600.73,-346.32 c 12.75,-7.36 24.46,-20 33.77,-35.11 l 476.63,276.02 c -2.63,4.23 -5.48,8.18 -8.46,11.94 l -465.2,-269.44"
         inkscape:connector-curvature="0" /><g
         id="g664"
         transform="translate(-1752.7859,808.97812)"><g
           clip-path="url(#clipPath670)"
           id="g666"><path
             id="path680"
             style="fill:url(#linearGradient678);fill-opacity:1;fill-rule:nonzero;stroke:none"
             d="m 2851.09,2851.28 -0.31,-0.18 v -0.02 z"
             inkscape:connector-curvature="0" /></g></g><path
         id="path682"
         style="fill:#263570;fill-opacity:1;fill-rule:nonzero;stroke:none"
         d="m 1717.2841,3013.8181 c 2.18,-1.26 5.3,-2.47 7.85,-1.01 2.67,1.54 4.27,5.83 4.27,11.47 v 152.15 c 0,12.46 -7.75,27.47 -16.92,32.76 l -556.25,321.15 c -2.18,1.25 -5.3,2.47 -7.84,1.02 -2.68,-1.54 -4.28,-5.83 -4.28,-11.47 v -152.14 c 0,-12.46 7.75,-27.47 16.92,-32.78 z m 5.29,-11.29 c -3.24,0 -6.66,0.99 -10.09,2.97 l -556.25,321.15 c -12.19,7.04 -21.73,25.1 -21.73,41.1 v 152.14 c 0,9.25 3.31,16.46 9.08,19.79 5.07,2.93 11.25,2.57 17.45,-1.02 l 556.25,-321.15 c 12.19,-7.03 21.73,-25.08 21.73,-41.08 v -152.15 c 0,-9.25 -3.31,-16.47 -9.08,-19.8 -2.27,-1.3 -4.75,-1.95 -7.36,-1.95"
         inkscape:connector-curvature="0" /><path
         id="path684"
         style="fill:#263570;fill-opacity:1;fill-rule:nonzero;stroke:none"
         d="m 1475.6841,3290.8381 -77.85,44.94 c -3.79,2.2 -6.87,8.07 -6.87,13.12 0,5.06 3.08,7.38 6.87,5.19 l 77.85,-44.95 c 3.79,-2.18 6.87,-8.05 6.87,-13.11 0,-5.05 -3.08,-7.38 -6.87,-5.19"
         inkscape:connector-curvature="0" /><path
         id="path686"
         style="fill:#263570;fill-opacity:1;fill-rule:nonzero;stroke:none"
         d="m 1717.2841,2708.7781 c 2.18,-1.25 5.3,-2.47 7.85,-1.01 2.67,1.54 4.27,5.83 4.27,11.46 v 152.15 c 0,12.47 -7.75,27.48 -16.92,32.77 l -556.25,321.16 c -2.18,1.25 -5.3,2.47 -7.84,1.01 -2.68,-1.54 -4.28,-5.83 -4.28,-11.46 v -152.15 c 0,-12.47 7.75,-27.48 16.92,-32.78 z m 5.29,-11.3 c -3.24,0 -6.66,1 -10.09,2.98 l -556.25,321.15 c -12.19,7.03 -21.73,25.09 -21.73,41.1 v 152.15 c 0,9.24 3.31,16.45 9.08,19.78 5.07,2.92 11.25,2.58 17.45,-1.01 l 556.25,-321.16 c 12.19,-7.03 21.73,-25.08 21.73,-41.09 v -152.15 c 0,-9.25 -3.31,-16.45 -9.08,-19.78 -2.27,-1.31 -4.75,-1.97 -7.36,-1.97"
         inkscape:connector-curvature="0" /><path
         id="path688"
         style="fill:#263570;fill-opacity:1;fill-rule:nonzero;stroke:none"
         d="m 1475.6841,2985.7881 -77.85,44.95 c -3.79,2.19 -6.87,8.06 -6.87,13.12 0,5.06 3.08,7.37 6.87,5.19 l 77.85,-44.95 c 3.79,-2.18 6.87,-8.06 6.87,-13.11 0,-5.06 -3.08,-7.38 -6.87,-5.2"
         inkscape:connector-curvature="0" /><path
         id="path690"
         style="fill:#243b74;fill-opacity:1;fill-rule:nonzero;stroke:none"
         d="m 1714.8841,2399.5781 -556.25,321.15 c -10.67,6.17 -19.33,22.7 -19.33,36.93 v 152.15 c 0,14.24 8.66,20.78 19.33,14.62 l 556.25,-321.17 c 10.67,-6.16 19.33,-22.69 19.33,-36.92 v -152.15 c 0,-14.24 -8.66,-20.77 -19.33,-14.61"
         inkscape:connector-curvature="0" /><path
         id="path692"
         style="fill:#263570;fill-opacity:1;fill-rule:nonzero;stroke:none"
         d="m 1717.2841,2098.6881 c 2.18,-1.25 5.3,-2.47 7.85,-1.01 2.67,1.54 4.27,5.83 4.27,11.46 v 152.16 c 0,12.46 -7.75,27.47 -16.92,32.76 l -556.25,321.16 c -2.18,1.26 -5.3,2.47 -7.84,1.01 -2.68,-1.54 -4.28,-5.83 -4.28,-11.46 v -152.15 c 0,-12.46 7.75,-27.47 16.92,-32.77 z m 5.29,-11.3 c -3.24,0 -6.66,1 -10.09,2.98 l -556.25,321.16 c -12.19,7.04 -21.73,25.09 -21.73,41.09 v 152.15 c 0,9.25 3.31,16.45 9.08,19.78 5.07,2.93 11.25,2.57 17.45,-1.01 l 556.25,-321.15 c 12.19,-7.04 21.73,-25.08 21.73,-41.09 v -152.16 c 0,-9.25 -3.31,-16.45 -9.08,-19.78 -2.27,-1.31 -4.75,-1.97 -7.36,-1.97"
         inkscape:connector-curvature="0" /><path
         id="path694"
         style="fill:#243b74;fill-opacity:1;fill-rule:nonzero;stroke:none"
         d="m 1475.6841,2375.7181 -77.85,44.94 c -3.79,2.18 -6.87,8.06 -6.87,13.11 0,5.06 3.08,7.38 6.87,5.2 l 77.85,-44.95 c 3.79,-2.19 6.87,-8.06 6.87,-13.12 0,-5.05 -3.08,-7.37 -6.87,-5.18"
         inkscape:connector-curvature="0" /><path
         id="path696"
         style="fill:#243b74;fill-opacity:1;fill-rule:nonzero;stroke:none"
         d="m 1267.3841,2560.7681 -77.85,44.95 c -3.79,2.19 -6.87,8.06 -6.87,13.12 0,5.05 3.08,7.37 6.87,5.19 l 77.85,-44.96 c 3.79,-2.18 6.87,-8.05 6.87,-13.11 0,-5.05 -3.08,-7.37 -6.87,-5.19"
         inkscape:connector-curvature="0" /><path
         id="path698"
         style="fill:#5fcbe3;fill-opacity:1;fill-rule:nonzero;stroke:none"
         d="m 1311.1741,2836.3481 -373.96002,-215.91 v 147.35 l 246.36002,142.23 127.6,-73.67"
         inkscape:connector-curvature="0" /><path
         id="path700"
         style="fill:#45aad7;fill-opacity:1;fill-rule:nonzero;stroke:none"
         d="m 1158.7341,2895.6781 111.1,-64.14 24.85,14.33 -111.11,64.15 -24.84,-14.34"
         inkscape:connector-curvature="0" /><g
         id="g702"
         transform="translate(-1752.7859,808.97812)"><g
           clip-path="url(#clipPath708)"
           id="g704"><path
             id="path718"
             style="fill:url(#radialGradient716);fill-opacity:1;fill-rule:nonzero;stroke:none"
             d="m 3215.37,1597.6 -251.17,125.39 -122.26,161.05 82.69,47.75 v -0.01 l 401.33,-228.88 -110.59,-64.14 v -41.16 m 258.85,191.28 c 0,0 -3.43,4.28 -10.93,7.94 l -386.22,222.98 h 0.01 l -2.54,1.46 0.01,0.01 388.74,-224.45 c 6.44,-3.08 9.49,-6.19 10.52,-7.4 0.28,-0.34 0.41,-0.54 0.41,-0.54 v 0"
             inkscape:connector-curvature="0" /></g></g><g
         id="g720"
         transform="translate(-1752.7859,808.97812)"><g
           clip-path="url(#clipPath726)"
           id="g722"><path
             id="path734"
             style="fill:url(#radialGradient732);fill-opacity:1;fill-rule:nonzero;stroke:none"
             d="m 2700.41,1802.33 v 147.34 l 224.22,129.45 v -147.34 l -82.69,-47.74 -7.5,-4.33 -134.03,-77.38 m 376.66,217.47 -127.59,73.66 51.71,-29.85 14.34,-8.28 59.01,-34.07 2.54,-1.46"
             inkscape:connector-curvature="0" /></g></g><path
         id="path736"
         style="fill:#5fcbe3;fill-opacity:1;fill-rule:nonzero;stroke:none"
         d="m 1734.2141,2566.3381 c 0,11.15 -5.34,23.64 -12.78,31.52 l -258.85,-150.12 v -147.35 l 271.63,155.55 v 110.4"
         inkscape:connector-curvature="0" /><path
         id="path738"
         style="fill:#45aad7;fill-opacity:1;fill-rule:nonzero;stroke:none"
         d="m 1695.2341,2582.6681 38.98,-22.5 v 6.17 c 0,11.15 -5.34,23.64 -12.78,31.52 l -26.2,-15.19"
         inkscape:connector-curvature="0" /><g
         id="g740"
         transform="translate(-1752.7859,808.97812)"><g
           clip-path="url(#clipPath746)"
           id="g742"><path
             id="path754"
             style="fill:url(#radialGradient752);fill-opacity:1;fill-rule:nonzero;stroke:none"
             d="m 3487,1757.36 c 0,6.64 -1.94,13.76 -5.03,20.12 L 3226.84,1629.51 V 1482.16 L 3487,1632.37 v 124.99"
             inkscape:connector-curvature="0" /></g></g><g
         id="g756"
         transform="translate(-1752.7859,808.97812)"><g
           clip-path="url(#clipPath762)"
           id="g758"><path
             id="path772"
             style="fill:url(#linearGradient770);fill-opacity:1;fill-rule:nonzero;stroke:none"
             d="m 3259.37,1674.3 -556.25,321.17 c -4.88,2.81 -9.27,2.86 -12.67,0.86 l -0.02,0.13 -16.93,-10 10.66,-0.97 c -0.23,-1.45 -0.37,-2.98 -0.37,-4.64 V 1828.7 c 0,-14.23 8.65,-30.76 19.33,-36.93 l 552.02,-318.71 v -13.41 l 16.85,9.94 -0.17,0.05 c 4.17,2.32 6.88,7.71 6.88,15.59 v 152.15 c 0,14.23 -8.66,30.76 -19.33,36.92"
             inkscape:connector-curvature="0" /></g></g><g
         id="g774"
         transform="translate(-1752.7859,808.97812)"><g
           clip-path="url(#clipPath780)"
           id="g776"><path
             id="path790"
             style="fill:url(#linearGradient788);fill-opacity:1;fill-rule:nonzero;stroke:none"
             d="m 3242.33,1460.56 -556.25,321.16 c -10.67,6.16 -19.33,22.69 -19.33,36.92 v 152.15 c 0,14.24 8.66,20.78 19.33,14.62 l 556.25,-321.17 c 10.67,-6.16 19.33,-22.69 19.33,-36.92 v -152.15 c 0,-14.24 -8.66,-20.77 -19.33,-14.61"
             inkscape:connector-curvature="0" /></g></g><path
         id="path792"
         style="fill:#263570;fill-opacity:1;fill-rule:nonzero;stroke:none"
         d="m 1250.3441,2550.7181 -77.85,44.95 c -3.79,2.18 -6.87,8.05 -6.87,13.11 0,5.05 3.08,7.37 6.87,5.19 l 77.85,-44.95 c 3.79,-2.19 6.87,-8.06 6.87,-13.12 0,-5.05 -3.08,-7.37 -6.87,-5.18"
         inkscape:connector-curvature="0" /><path
         id="path794"
         style="fill:#3976a7;fill-opacity:1;fill-rule:nonzero;stroke:none"
         d="m 1171.8441,2888.0981 v 0.01 l 0.01,-0.01 h -0.01"
         inkscape:connector-curvature="0" /><path
         id="path796"
         style="fill:#2a629d;fill-opacity:1;fill-rule:nonzero;stroke:none"
         d="m 1171.8541,2888.0981 -0.01,0.01 v 0 l 24.85,14.33 -24.84,-14.34"
         inkscape:connector-curvature="0" /><g
         id="g798"
         transform="translate(-1752.7859,808.97812)"><g
           clip-path="url(#clipPath804)"
           id="g800"><path
             id="path814"
             style="fill:url(#radialGradient812);fill-opacity:1;fill-rule:nonzero;stroke:none"
             d="m 3325.96,1702.9 -401.33,228.88 152.45,88.02 386.21,-222.98 c 7.5,-3.66 10.93,-7.94 10.93,-7.94 l -26.2,-15.19 -122.06,-70.79"
             inkscape:connector-curvature="0" /></g></g><g
         id="g816"
         transform="translate(-1752.7859,808.97812)"><g
           clip-path="url(#clipPath822)"
           id="g818"><path
             id="path830"
             style="fill:url(#radialGradient828);fill-opacity:1;fill-rule:nonzero;stroke:none"
             d="m 2924.63,1931.78 v 147.34 h 0.01 l 24.84,14.34 127.59,-73.66 -152.44,-88.01"
             inkscape:connector-curvature="0" /></g></g><path
         id="path832"
         style="fill:#ffffff;fill-opacity:1;fill-rule:nonzero;stroke:none"
         d="m 2595.5841,3924.0281 -326.69,188.62 211.61,122.17 326.69,-188.63 -211.61,-122.16"
         inkscape:connector-curvature="0" /><g
         id="g834"
         transform="translate(-1752.7859,808.97812)"><g
           clip-path="url(#clipPath840)"
           id="g836"><path
             id="path850"
             style="fill:url(#linearGradient848);fill-opacity:1;fill-rule:nonzero;stroke:none"
             d="m 4553.5,3240.95 -36.24,20.93 54.82,31.64 -7.11,4.1 0.47,0.27 43.34,-25.02 -55.28,-31.92"
             inkscape:connector-curvature="0" /></g></g><path
         id="path852"
         style="fill:#9894b3;fill-opacity:1;fill-rule:nonzero;stroke:none"
         d="m 2644.3941,3959.6781 -36.24,20.92 156.32,90.26 36.24,-20.93 -156.32,-90.25"
         inkscape:connector-curvature="0" /><path
         id="path854"
         style="fill:#cbeced;fill-opacity:1;fill-rule:nonzero;stroke:none"
         d="m 2607.6841,3980.3281 -326.69,188.62 211.61,122.17 326.69,-188.62 -211.61,-122.17"
         inkscape:connector-curvature="0" /><path
         id="path856"
         style="fill:#ffffff;fill-opacity:1;fill-rule:nonzero;stroke:none"
         d="m 2607.6841,3988.5381 -326.69,188.61 211.61,122.17 326.69,-188.61 -211.61,-122.17"
         inkscape:connector-curvature="0" /><path
         id="path858"
         style="fill:#cbeced;fill-opacity:1;fill-rule:nonzero;stroke:none"
         d="m 2607.6841,3996.7481 -326.69,188.61 211.61,122.17 326.69,-188.61 -211.61,-122.17"
         inkscape:connector-curvature="0" /><path
         id="path860"
         style="fill:#ffffff;fill-opacity:1;fill-rule:nonzero;stroke:none"
         d="m 2607.6841,4004.9481 -326.69,188.62 211.61,122.16 326.69,-188.61 -211.61,-122.17"
         inkscape:connector-curvature="0" /><path
         id="path862"
         style="fill:#cbeced;fill-opacity:1;fill-rule:nonzero;stroke:none"
         d="m 2537.4941,4212.2781 h 0.05 -0.05 m 19.94,3.53 c -6.58,0 -13.17,-1.7 -19.04,-5.09 l -77.63,-44.81 c -2.01,-1.16 -3.21,-3.24 -3.21,-5.57 0,-2.32 1.2,-4.4 3.21,-5.56 l 77.62,-44.82 c 11.75,-6.77 26.34,-6.79 38.09,0 l 77.63,44.82 c 2.01,1.16 3.21,3.24 3.21,5.56 0,2.33 -1.2,4.41 -3.21,5.57 l -77.62,44.81 c -5.87,3.39 -12.46,5.09 -19.05,5.09 m 0,-114.53 c -7.21,0 -14.41,1.87 -20.85,5.58 l -77.62,44.81 c -3.13,1.81 -5,5.05 -5,8.67 0,3.63 1.87,6.87 5,8.68 l 77.63,44.81 c 12.84,7.42 28.83,7.43 41.69,0 l 77.62,-44.81 c 3.13,-1.81 5,-5.05 5,-8.68 0,-3.62 -1.87,-6.86 -5,-8.67 l -77.63,-44.81 c -6.43,-3.71 -13.63,-5.58 -20.84,-5.58"
         inkscape:connector-curvature="0" /><path
         id="path864"
         style="fill:#cbeced;fill-opacity:1;fill-rule:nonzero;stroke:none"
         d="m 2556.9441,4134.0781 40.26,23.25 c 2.32,1.34 6.09,1.34 8.41,0 2.33,-1.34 2.33,-3.52 0,-4.86 l -40.26,-23.24 c -2.32,-1.35 -6.09,-1.35 -8.41,0 -2.32,1.34 -2.32,3.52 0,4.85"
         inkscape:connector-curvature="0" /><path
         id="path866"
         style="fill:#e0f4f6;fill-opacity:1;fill-rule:nonzero;stroke:none"
         d="m 2543.5141,4138.3981 c -1.52,0 -3.04,0.33 -4.2,1.01 -2.32,1.33 -2.32,3.51 0,4.85 l 34.37,19.94 c 1.16,0.67 2.69,1 4.21,1 1.52,0 3.05,-0.33 4.21,-1 2.32,-1.35 2.32,-3.51 0,-4.86 l -34.38,-19.93 c -1.16,-0.68 -2.68,-1.01 -4.21,-1.01"
         inkscape:connector-curvature="0" /><path
         id="path868"
         style="fill:#cbeced;fill-opacity:1;fill-rule:nonzero;stroke:none"
         d="m 2521.6941,4154.4381 12.41,7.16 c 2.32,1.35 6.09,1.35 8.42,0 2.32,-1.33 2.32,-3.51 0,-4.85 l -12.42,-7.17 c -2.33,-1.35 -6.1,-1.35 -8.41,0 -2.33,1.34 -2.33,3.52 0,4.86"
         inkscape:connector-curvature="0" /><path
         id="path870"
         style="fill:#cbeced;fill-opacity:1;fill-rule:nonzero;stroke:none"
         d="m 2504.0641,4164.6081 35.05,20.25 c 2.32,1.33 6.09,1.33 8.42,0 2.32,-1.35 2.31,-3.52 0,-4.87 l -35.06,-20.23 c -2.33,-1.34 -6.09,-1.34 -8.41,0 -2.32,1.34 -2.32,3.51 0,4.85"
         inkscape:connector-curvature="0" /><path
         id="path872"
         style="fill:#cbeced;fill-opacity:1;fill-rule:nonzero;stroke:none"
         d="m 2580.6141,4183.5581 c 2.33,-1.35 2.33,-3.52 0,-4.87 l -22.76,-13.08 c -2.32,-1.35 -6.08,-1.35 -8.41,0 -2.32,1.34 -2.32,3.51 0,4.85 l 22.76,13.1 c 2.32,1.33 6.09,1.33 8.41,0"
         inkscape:connector-curvature="0" /><g
         id="g874"
         transform="translate(-1752.7859,808.97812)"><g
           clip-path="url(#clipPath880)"
           id="g876"><path
             id="path882"
             style="fill:#ffffff;fill-opacity:1;fill-rule:nonzero;stroke:none"
             d="m 3199.36,1842.84 -198.63,114.69 v 152.36 l 198.63,-114.69 v -152.36"
             inkscape:connector-curvature="0" /><path
             id="path884"
             style="fill:#cbeced;fill-opacity:1;fill-rule:nonzero;stroke:none"
             d="m 3185.02,1834.55 -198.63,114.69 v 152.35 l 198.63,-114.68 v -152.36"
             inkscape:connector-curvature="0" /><path
             id="path886"
             style="fill:#ffffff;fill-opacity:1;fill-rule:nonzero;stroke:none"
             d="m 3170.69,1826.26 -198.63,114.67 v 152.37 l 198.63,-114.68 v -152.36"
             inkscape:connector-curvature="0" /><path
             id="path888"
             style="fill:#cbeced;fill-opacity:1;fill-rule:nonzero;stroke:none"
             d="m 3156.35,1817.96 -198.63,114.68 v 152.37 l 198.63,-114.69 v -152.36"
             inkscape:connector-curvature="0" /><path
             id="path890"
             style="fill:#ffffff;fill-opacity:1;fill-rule:nonzero;stroke:none"
             d="m 3142.02,1809.66 -198.64,114.69 v 152.36 l 198.64,-114.68 v -152.37"
             inkscape:connector-curvature="0" /><path
             id="path892"
             style="fill:#cbeced;fill-opacity:1;fill-rule:nonzero;stroke:none"
             d="m 3127.68,1801.37 -198.63,114.68 v 152.36 l 198.63,-114.67 v -152.37"
             inkscape:connector-curvature="0" /><path
             id="path894"
             style="fill:#ffffff;fill-opacity:1;fill-rule:nonzero;stroke:none"
             d="m 3113.34,1793.07 -198.63,114.69 v 152.36 l 198.63,-114.68 v -152.37"
             inkscape:connector-curvature="0" /><path
             id="path896"
             style="fill:#cbeced;fill-opacity:1;fill-rule:nonzero;stroke:none"
             d="m 3099.01,1784.78 -198.63,114.69 v 152.36 l 198.63,-114.68 v -152.37"
             inkscape:connector-curvature="0" /><path
             id="path898"
             style="fill:#ffffff;fill-opacity:1;fill-rule:nonzero;stroke:none"
             d="m 3084.67,1776.49 -198.63,114.68 v 152.36 l 198.63,-114.68 v -152.36"
             inkscape:connector-curvature="0" /><path
             id="path900"
             style="fill:#cbeced;fill-opacity:1;fill-rule:nonzero;stroke:none"
             d="m 3070.34,1768.2 -198.64,114.68 v 152.36 l 198.64,-114.69 V 1768.2"
             inkscape:connector-curvature="0" /><path
             id="path902"
             style="fill:#ffffff;fill-opacity:1;fill-rule:nonzero;stroke:none"
             d="m 3056.01,1759.9 -198.64,114.69 v 152.36 l 198.64,-114.69 V 1759.9"
             inkscape:connector-curvature="0" /><path
             id="path904"
             style="fill:#cbeced;fill-opacity:1;fill-rule:nonzero;stroke:none"
             d="m 3041.67,1751.61 -198.64,114.69 v 152.35 l 198.64,-114.68 v -152.36"
             inkscape:connector-curvature="0" /><path
             id="path906"
             style="fill:#ffffff;fill-opacity:1;fill-rule:nonzero;stroke:none"
             d="m 3027.34,1743.32 -198.64,114.67 v 152.37 l 198.64,-114.69 v -152.35"
             inkscape:connector-curvature="0" /><path
             id="path908"
             style="fill:#ffffff;fill-opacity:1;fill-rule:nonzero;stroke:none"
             d="m 3476.15,1736.59 -198.64,114.68 v 152.36 l 198.64,-114.69 v -152.35"
             inkscape:connector-curvature="0" /><path
             id="path910"
             style="fill:#cbeced;fill-opacity:1;fill-rule:nonzero;stroke:none"
             d="m 3461.81,1728.29 -198.63,114.69 v 152.36 l 198.63,-114.69 v -152.36"
             inkscape:connector-curvature="0" /><path
             id="path912"
             style="fill:#ffffff;fill-opacity:1;fill-rule:nonzero;stroke:none"
             d="m 3448.02,1726.59 -198.63,114.69 v 152.35 l 198.63,-114.68 v -152.36"
             inkscape:connector-curvature="0" /><path
             id="path914"
             style="fill:#cbeced;fill-opacity:1;fill-rule:nonzero;stroke:none"
             d="m 3433.69,1718.3 -198.64,114.68 v 152.36 l 198.64,-114.68 V 1718.3"
             inkscape:connector-curvature="0" /><path
             id="path916"
             style="fill:#ffffff;fill-opacity:1;fill-rule:nonzero;stroke:none"
             d="m 3419.7,1715.23 -198.64,114.69 v 152.35 l 198.64,-114.68 v -152.36"
             inkscape:connector-curvature="0" /><path
             id="path918"
             style="fill:#cbeced;fill-opacity:1;fill-rule:nonzero;stroke:none"
             d="m 3405.37,1706.94 -198.65,114.68 v 152.36 l 198.65,-114.68 v -152.36"
             inkscape:connector-curvature="0" /><path
             id="path920"
             style="fill:#ffffff;fill-opacity:1;fill-rule:nonzero;stroke:none"
             d="m 3391.03,1698.64 -198.64,114.69 v 152.36 L 3391.03,1851 v -152.36"
             inkscape:connector-curvature="0" /><path
             id="path922"
             style="fill:#cbeced;fill-opacity:1;fill-rule:nonzero;stroke:none"
             d="m 3376.69,1690.35 -198.64,114.69 v 152.36 l 198.64,-114.69 v -152.36"
             inkscape:connector-curvature="0" /><path
             id="path924"
             style="fill:#ffffff;fill-opacity:1;fill-rule:nonzero;stroke:none"
             d="m 3362.36,1682.06 -198.64,114.68 v 152.36 l 198.64,-114.68 v -152.36"
             inkscape:connector-curvature="0" /><path
             id="path926"
             style="fill:#cbeced;fill-opacity:1;fill-rule:nonzero;stroke:none"
             d="m 3348.02,1673.77 -198.64,114.67 v 152.37 l 198.64,-114.69 v -152.35"
             inkscape:connector-curvature="0" /><path
             id="path928"
             style="fill:#ffffff;fill-opacity:1;fill-rule:nonzero;stroke:none"
             d="m 3333.69,1665.47 -198.65,114.68 v 152.37 l 198.65,-114.69 v -152.36"
             inkscape:connector-curvature="0" /><path
             id="path930"
             style="fill:#cbeced;fill-opacity:1;fill-rule:nonzero;stroke:none"
             d="m 3319.35,1657.17 -198.64,114.69 v 152.36 l 198.64,-114.68 v -152.37"
             inkscape:connector-curvature="0" /><path
             id="path932"
             style="fill:#ffffff;fill-opacity:1;fill-rule:nonzero;stroke:none"
             d="m 3305.01,1648.88 -198.64,114.68 v 152.36 l 198.64,-114.68 v -152.36"
             inkscape:connector-curvature="0" /><path
             id="path934"
             style="fill:#cbeced;fill-opacity:1;fill-rule:nonzero;stroke:none"
             d="m 3290.68,1640.58 -198.64,114.69 v 152.36 l 198.64,-114.68 v -152.37"
             inkscape:connector-curvature="0" /><path
             id="path936"
             style="fill:#ffffff;fill-opacity:1;fill-rule:nonzero;stroke:none"
             d="m 3276.34,1632.29 -198.64,114.69 v 152.35 l 198.64,-114.67 v -152.37"
             inkscape:connector-curvature="0" /><path
             id="path938"
             style="fill:#cbeced;fill-opacity:1;fill-rule:nonzero;stroke:none"
             d="m 3262.01,1624 -198.64,114.68 v 152.36 l 198.64,-114.69 V 1624"
             inkscape:connector-curvature="0" /><path
             id="path940"
             style="fill:#ffffff;fill-opacity:1;fill-rule:nonzero;stroke:none"
             d="m 3247.67,1615.7 -198.63,114.69 v 152.36 l 198.63,-114.69 V 1615.7"
             inkscape:connector-curvature="0" /></g></g><g
         id="g942"
         transform="translate(-1752.7859,808.97812)"><g
           clip-path="url(#clipPath948)"
           id="g944"><path
             id="path958"
             style="fill:url(#linearGradient956);fill-opacity:1;fill-rule:nonzero;stroke:none"
             d="m 3483.78,2727.85 -111.18,64.19 -69.09,-39.89 -24.81,136.42 236.31,-14.31 -69.11,-39.9 111.18,-64.19 -36.65,-21.16 -36.65,-21.16"
             inkscape:connector-curvature="0" /></g></g><path
         id="path960"
         style="fill:#182136;fill-opacity:1;fill-rule:nonzero;stroke:none"
         d="m 2182.6141,3377.1481 c -2.99,0 -6.3,-1.01 -9.81,-3.05 l -275.64,-159.14 c -15.14,-8.74 -27.45,-32.41 -27.45,-52.76 v -1054.68 c 0,-10.02 3.03,-17.52 8.33,-20.57 4.21,-2.44 9.6,-1.91 15.58,1.54 l 275.65,159.14 c 15.14,8.74 27.46,32.41 27.46,52.76 v 1054.68 c 0,10.02 -3.05,17.52 -8.34,20.58 -1.75,1 -3.68,1.5 -5.78,1.5 z m -298.83,-1298.75 c -3.31,0 -6.45,0.8 -9.26,2.43 -7.54,4.36 -11.87,14.08 -11.87,26.69 v 1054.68 c 0,22.6 13.89,49.01 30.97,58.88 l 275.65,159.14 c 8.17,4.72 16.21,5.25 22.64,1.54 7.54,-4.36 11.87,-14.08 11.87,-26.69 v -1054.68 c 0,-22.59 -13.9,-49.01 -30.98,-58.87 l -275.64,-159.14 c -4.59,-2.65 -9.13,-3.98 -13.38,-3.98"
         inkscape:connector-curvature="0" /><path
         id="path962"
         style="fill:#182136;fill-opacity:1;fill-rule:nonzero;stroke:none"
         d="m 3005.4041,3884.2281 c -3,0 -6.31,-1.01 -9.82,-3.05 l -275.64,-159.14 c -15.15,-8.74 -27.46,-32.41 -27.46,-52.76 v -1054.68 c 0,-10.01 3.04,-17.51 8.34,-20.56 4.23,-2.46 9.64,-1.91 15.58,1.54 l 275.65,159.14 c 15.14,8.74 27.45,32.41 27.45,52.76 v 1054.68 c 0,10.02 -3.04,17.51 -8.33,20.57 -1.75,1 -3.68,1.5 -5.77,1.5 z m -298.85,-1298.75 c -3.31,0 -6.44,0.81 -9.27,2.44 -7.54,4.36 -11.85,14.08 -11.85,26.68 v 1054.68 c 0,22.6 13.89,49.01 30.97,58.88 l 275.65,159.14 c 8.16,4.71 16.2,5.27 22.65,1.54 7.53,-4.36 11.85,-14.07 11.85,-26.68 v -1054.68 c 0,-22.59 -13.89,-49.01 -30.97,-58.87 l -275.64,-159.14 c -4.59,-2.65 -9.14,-3.99 -13.39,-3.99"
         inkscape:connector-curvature="0" /></g></g></svg>