<?xml version="1.0" encoding="UTF-8" standalone="no"?>
<svg
   xmlns:dc="http://purl.org/dc/elements/1.1/"
   xmlns:cc="http://creativecommons.org/ns#"
   xmlns:rdf="http://www.w3.org/1999/02/22-rdf-syntax-ns#"
   xmlns:svg="http://www.w3.org/2000/svg"
   xmlns="http://www.w3.org/2000/svg"
   id="svg865"
   version="1.1"
   viewBox="0 0 16.933 16.933"
   height="64"
   width="64">
  <metadata
     id="metadata871">
    <rdf:RDF>
      <cc:Work
         rdf:about="">
        <dc:format>image/svg+xml</dc:format>
        <dc:type
           rdf:resource="http://purl.org/dc/dcmitype/StillImage" />
        <dc:title></dc:title>
      </cc:Work>
    </rdf:RDF>
  </metadata>
  <defs
     id="defs869" />
  <path
     id="path863"
     style="line-height:normal;font-variant-ligatures:normal;font-variant-position:normal;font-variant-caps:normal;font-variant-numeric:normal;font-variant-alternates:normal;font-feature-settings:normal;text-indent:0;text-align:start;text-decoration-line:none;text-decoration-style:solid;text-decoration-color:#000;text-transform:none;text-orientation:mixed;shape-padding:0;isolation:auto;mix-blend-mode:normal;fill:#f9f9f9"
     white-space="normal"
     transform="translate(0 -280.067)"
     overflow="visible"
     font-weight="400"
     font-family="sans-serif"
     color="#000"
     d="m 13.494271,281.30068 c -0.338972,0 -0.67836,0.12748 -0.93586,0.38499 l -0.702799,0.70279 2.591573,2.92024 0.86713,-0.86713 c 0.515,-0.515 0.515,-1.3562 0,-1.8712 l -0.8847,-0.8847 c -0.2575,-0.25751 -0.596372,-0.38499 -0.935344,-0.38499 z m -2.013314,1.46244 -8.8206497,8.82065 1.1777057,1.20303 8.762773,-8.76226 z m 1.471745,1.65881 -8.7436521,8.74417 1.1777059,1.20303 8.6857752,-8.68577 z m -10.6050373,7.59902 -0.372587,1.04387 1.9905761,1.94923 0.9720337,-0.34675 z m -0.5684407,1.59267 -0.7048666,1.97404 a 0.26460982,0.26460982 0 0 0 0.3379639,0.33796 l 1.9993612,-0.71365 z" />
</svg>
