<?xml version="1.0" encoding="UTF-8" standalone="no"?>
<svg
   xmlns:dc="http://purl.org/dc/elements/1.1/"
   xmlns:cc="http://creativecommons.org/ns#"
   xmlns:rdf="http://www.w3.org/1999/02/22-rdf-syntax-ns#"
   xmlns:svg="http://www.w3.org/2000/svg"
   xmlns="http://www.w3.org/2000/svg"
   xmlns:sodipodi="http://sodipodi.sourceforge.net/DTD/sodipodi-0.dtd"
   xmlns:inkscape="http://www.inkscape.org/namespaces/inkscape"
   viewBox="0 0 64 64"
   version="1.1"
   id="svg13940"
   sodipodi:docname="logout.svg"
   inkscape:version="0.92.3 (2405546, 2018-03-11)">
  <metadata
     id="metadata13946">
    <rdf:RDF>
      <cc:Work
         rdf:about="">
        <dc:format>image/svg+xml</dc:format>
        <dc:type
           rdf:resource="http://purl.org/dc/dcmitype/StillImage" />
        <dc:title></dc:title>
      </cc:Work>
    </rdf:RDF>
  </metadata>
  <defs
     id="defs13944" />
  <sodipodi:namedview
     pagecolor="#ffffff"
     bordercolor="#666666"
     borderopacity="1"
     objecttolerance="10"
     gridtolerance="10"
     guidetolerance="10"
     inkscape:pageopacity="0"
     inkscape:pageshadow="2"
     inkscape:window-width="742"
     inkscape:window-height="480"
     id="namedview13942"
     showgrid="false"
     inkscape:zoom="3.6875"
     inkscape:cx="27.27032"
     inkscape:cy="53.694915"
     inkscape:window-x="67"
     inkscape:window-y="27"
     inkscape:window-maximized="0"
     inkscape:current-layer="svg13940" />
  <path
     fill="#222"
     d="M32,52.72A20.43,20.43,0,0,1,17.87,17.55a1,1,0,0,1,1.42,0,1,1,0,0,1,0,1.41,18.42,18.42,0,1,0,25.48,0,1,1,0,0,1,0-1.41,1,1,0,0,1,1.42,0A20.43,20.43,0,0,1,32,52.72Z"
     id="path13936"
     style="fill:#f9f9f9" />
  <path
     fill="#222"
     d="M32,34a1,1,0,0,1-1-1V12.28a1,1,0,0,1,2,0V33A1,1,0,0,1,32,34Z"
     id="path13938"
     style="fill:#f9f9f9" />
</svg>
