<?xml version="1.0" encoding="UTF-8" standalone="no"?>
<svg
   xmlns:dc="http://purl.org/dc/elements/1.1/"
   xmlns:cc="http://creativecommons.org/ns#"
   xmlns:rdf="http://www.w3.org/1999/02/22-rdf-syntax-ns#"
   xmlns:svg="http://www.w3.org/2000/svg"
   xmlns="http://www.w3.org/2000/svg"
   id="svg8"
   version="1.1"
   width="8"
   viewBox="0 0 8 32"
   height="32">
  <defs
     id="defs12" />
  <path
     style="fill:none"
     id="path2"
     d="M -20,-8 H 28 V 40 H -20 Z" />
  <path
     style="fill:#f9f9f9"
     id="path4"
     d="M 4,8 C 6.21,8 8,6.21 8,4 8,1.79 6.21,0 4,0 1.79,0 0,1.79 0,4 0,6.21 1.79,8 4,8 Z m 0,4 c -2.21,0 -4,1.79 -4,4 0,2.21 1.79,4 4,4 2.21,0 4,-1.79 4,-4 0,-2.21 -1.79,-4 -4,-4 z m 0,12 c -2.21,0 -4,1.79 -4,4 0,2.21 1.79,4 4,4 2.21,0 4,-1.79 4,-4 0,-2.21 -1.79,-4 -4,-4 z" />
  <metadata
     id="metadata6">
    <rdf:RDF>
      <rdf:Description
         dc:language="en"
         dc:format="image/svg+xml"
         dc:date="2016-12-14"
         dc:publisher="Iconscout"
         dc:description="Menu, More, Collection, App, List, Vertical"
         dc:title="Menu, More, Collection, App, List, Vertical"
         about="https://iconscout.com/legal#licenses">
        <dc:creator>
          <rdf:Bag>
            <rdf:li>Google Inc.</rdf:li>
          </rdf:Bag>
        </dc:creator>
      </rdf:Description>
      <cc:Work
         rdf:about="">
        <dc:format>image/svg+xml</dc:format>
        <dc:type
           rdf:resource="http://purl.org/dc/dcmitype/StillImage" />
        <dc:title></dc:title>
      </cc:Work>
    </rdf:RDF>
  </metadata>
</svg>
