<?xml version="1.0" encoding="UTF-8" standalone="no"?>
<!-- Created with Inkscape (http://www.inkscape.org/) -->

<svg
   xmlns:dc="http://purl.org/dc/elements/1.1/"
   xmlns:cc="http://creativecommons.org/ns#"
   xmlns:rdf="http://www.w3.org/1999/02/22-rdf-syntax-ns#"
   xmlns:svg="http://www.w3.org/2000/svg"
   xmlns="http://www.w3.org/2000/svg"
   xmlns:xlink="http://www.w3.org/1999/xlink"
   xmlns:sodipodi="http://sodipodi.sourceforge.net/DTD/sodipodi-0.dtd"
   xmlns:inkscape="http://www.inkscape.org/namespaces/inkscape"
   version="1.1"
   id="svg2"
   xml:space="preserve"
   width="666.66669"
   height="666.66669"
   viewBox="0 0 666.66669 666.66669"
   sodipodi:docname="signUp.svg"
   inkscape:version="0.92.3 (2405546, 2018-03-11)"><metadata
     id="metadata8"><rdf:RDF><cc:Work
         rdf:about=""><dc:format>image/svg+xml</dc:format><dc:type
           rdf:resource="http://purl.org/dc/dcmitype/StillImage" /><dc:title></dc:title></cc:Work></rdf:RDF></metadata><defs
     id="defs6"><linearGradient
       inkscape:collect="always"
       id="linearGradient1129"><stop
         style="stop-color:#8758e3;stop-opacity:1"
         offset="0"
         id="stop1125" /><stop
         style="stop-color:#00ffe9;stop-opacity:1"
         offset="1"
         id="stop1127" /></linearGradient><linearGradient
       inkscape:collect="always"
       id="linearGradient1121"><stop
         style="stop-color:#8758e3;stop-opacity:1"
         offset="0"
         id="stop1117" /><stop
         style="stop-color:#00ffe9;stop-opacity:1"
         offset="1"
         id="stop1119" /></linearGradient><clipPath
       clipPathUnits="userSpaceOnUse"
       id="clipPath76"><path
         d="m 2223.25,3255.97 h 287.602 v 30.6328 H 2223.25 Z"
         id="path74"
         inkscape:connector-curvature="0" /></clipPath><clipPath
       clipPathUnits="userSpaceOnUse"
       id="clipPath100"><path
         d="m 2220.7,2915.69 h 163.402 v 37.1172 H 2220.7 Z"
         id="path98"
         inkscape:connector-curvature="0" /></clipPath><clipPath
       clipPathUnits="userSpaceOnUse"
       id="clipPath124"><path
         d="m 2220.7,2564.81 h 76.832 v 38.5898 H 2220.7 Z"
         id="path122"
         inkscape:connector-curvature="0" /></clipPath><clipPath
       clipPathUnits="userSpaceOnUse"
       id="clipPath148"><path
         d="m 2223.25,2220.17 h 188.879 v 30.6367 H 2223.25 Z"
         id="path146"
         inkscape:connector-curvature="0" /></clipPath><linearGradient
       inkscape:collect="always"
       xlink:href="#linearGradient1121"
       id="linearGradient1123"
       x1="3004.7283"
       y1="3483.4097"
       x2="4137.9497"
       y2="4726.8389"
       gradientUnits="userSpaceOnUse" /><linearGradient
       inkscape:collect="always"
       xlink:href="#linearGradient1129"
       id="linearGradient1131"
       x1="590.988"
       y1="2257.605"
       x2="2014.34"
       y2="2257.605"
       gradientUnits="userSpaceOnUse" /></defs><sodipodi:namedview
     pagecolor="#ffffff"
     bordercolor="#666666"
     borderopacity="1"
     objecttolerance="10"
     gridtolerance="10"
     guidetolerance="10"
     inkscape:pageopacity="0"
     inkscape:pageshadow="2"
     inkscape:window-width="1853"
     inkscape:window-height="1025"
     id="namedview4"
     showgrid="false"
     inkscape:zoom="1.0012632"
     inkscape:cx="284.56861"
     inkscape:cy="290.36028"
     inkscape:window-x="67"
     inkscape:window-y="27"
     inkscape:window-maximized="1"
     inkscape:current-layer="g12" /><g
     id="g10"
     inkscape:groupmode="layer"
     inkscape:label="ink_ext_XXXXXX"
     transform="matrix(1.3333333,0,0,-1.3333333,0,666.66667)"><g
       id="g12"
       transform="scale(0.1)"><path
         d="m 604.547,3508.14 83.016,32.32 c 40.218,47.94 116.042,132.25 158.125,132.25 1.066,0 2.113,-0.06 3.132,-0.17 48.368,-5.21 75.45,-97.08 75.45,-97.08 0,0 34.824,81.25 110.27,127.68 11.61,7.15 22.67,10.17 33.07,10.17 57.22,0 94.62,-91.42 94.62,-91.42 0,0 5.8,139.29 145.09,203.13 12.67,5.81 24.08,8.44 34.37,8.44 102.9,0 93.32,-263.8 93.32,-263.8 l 284.38,-58.04 -1114.843,-3.48"
         style="fill:#e7d3d3;fill-opacity:1;fill-rule:nonzero;stroke:none"
         id="path16"
         inkscape:connector-curvature="0" /><path
         d="m 3670.62,2990.31 68.49,24.01 c 33.17,35.62 95.72,98.26 130.45,98.26 0.87,0 1.74,-0.04 2.58,-0.12 39.89,-3.87 62.23,-72.13 62.23,-72.13 0,0 28.73,60.37 90.97,94.86 9.57,5.31 18.69,7.55 27.28,7.55 47.19,0 78.05,-67.92 78.05,-67.92 0,0 4.79,103.49 119.69,150.92 10.45,4.32 19.86,6.28 28.35,6.28 84.88,0 76.98,-196.01 76.98,-196.01 l 234.6,-43.12 -919.67,-2.58"
         style="fill:#e7d3d3;fill-opacity:1;fill-rule:nonzero;stroke:none"
         id="path18"
         inkscape:connector-curvature="0" /><path
         d="m 2174.49,4308.2 68.49,26.66 c 33.17,39.55 95.72,109.1 130.44,109.1 0.88,0 1.74,-0.05 2.58,-0.14 39.9,-4.3 62.24,-80.09 62.24,-80.09 0,0 28.73,67.04 90.97,105.34 9.57,5.89 18.69,8.38 27.28,8.38 47.2,0 78.05,-75.41 78.05,-75.41 0,0 4.78,114.9 119.68,167.57 10.45,4.78 19.87,6.96 28.36,6.96 84.88,0 76.98,-217.62 76.98,-217.62 l 234.6,-47.88 -919.67,-2.87"
         style="fill:#e7d3d3;fill-opacity:1;fill-rule:nonzero;stroke:none"
         id="path20"
         inkscape:connector-curvature="0" /><path
         d="m 3659.57,3855.29 50.4,-145.19 c 2.13,-6.14 -1.52,-12.44 -7.73,-14.59 l -69.51,-24.13 c -5.31,-1.85 -12.14,0.81 -14.28,6.95 l -50.4,145.19 c -53.92,1.94 -104.14,35.91 -123.09,90.53 -24.39,70.23 12.92,147.29 83.38,171.75 70.41,24.44 147.42,-12.93 171.8,-83.16 18.97,-54.62 0.6,-112.39 -40.57,-147.35 z m -419.82,518.21 c -30.65,88.31 16.16,185.11 104.48,215.76 88.25,30.64 185.01,-16.3 215.68,-104.62 l 30.32,-87.37 -320.15,-111.14 z m 552.54,93.91 -69.94,-24.28 -30.33,87.37 c -55.94,161.15 -232.63,246.72 -393.64,190.83 -161.09,-55.92 -246.56,-232.51 -190.62,-393.65 l 30.33,-87.37 -70.16,-24.36 c -54.56,-18.94 -83.88,-79.32 -64.92,-133.95 l 197.38,-568.54 c 19.25,-55.45 79.7,-84.8 134.26,-65.86 l 724.37,251.47 c 55.45,19.25 84.78,79.77 65.53,135.21 l -197.38,568.55 c -18.96,54.62 -79.44,83.83 -134.88,64.58"
         style="fill:url(#linearGradient1123);fill-opacity:1;fill-rule:nonzero;stroke:none"
         id="path22"
         inkscape:connector-curvature="0" /><path
         d="m 3313.17,1658.69 c -17.21,33.54 23.09,69.45 60.2,76.08 37.11,6.63 79.15,1.56 108.7,24.96 39.45,31.25 37.43,99.41 81.15,124.35 35.09,20.03 81.54,0.92 118.72,16.75 46.18,19.66 59.17,84 104.48,105.6 36.12,17.22 83.35,-2.24 101.79,-37.75 18.44,-35.52 9.95,-81.42 -15.61,-112.2 -19.99,-24.07 -49.59,-40.96 -62.01,-69.68 -19.44,-44.97 11.25,-99.47 -6.65,-145.08 -33.04,-84.25 -189.2,-58.89 -216.33,-145.23 -6.03,-19.22 -3.49,-39.94 -5.06,-60.03 -4.68,-59.74 -46.8,-111.94 -98.83,-141.7 -52.02,-29.76 -112.88,-40.09 -172.67,-44.27 -24.42,-1.7 -50.17,-2.21 -71.95,8.99 -20.49,10.55 -34.75,30.17 -45.88,50.34 -71.8,130.26 -101.4,300.02 119.95,348.87"
         style="fill:#47bf91;fill-opacity:1;fill-rule:nonzero;stroke:none"
         id="path24"
         inkscape:connector-curvature="0" /><path
         d="m 2161.54,1727.93 c 38.61,25.5 17.14,88.19 -18.56,117.63 -35.7,29.45 -83.72,49.33 -101.24,92.16 -23.38,57.19 19.82,128.87 -11.91,181.88 -25.48,42.55 -86.68,50.09 -116.91,89.4 -37.56,48.85 -12.7,125.5 -48.16,175.89 -28.26,40.18 -90.5,47.79 -131.61,20.92 -41.1,-26.89 -59.68,-81.1 -50.88,-129.42 6.89,-37.79 28.38,-73.66 24.37,-111.86 -6.28,-59.82 -71.94,-99.64 -80.27,-159.2 -15.38,-110.02 166.92,-176.93 143.94,-285.63 -5.12,-24.19 -20.31,-44.82 -30.73,-67.25 -30.98,-66.73 -17.35,-147.93 20.37,-211.09 37.72,-63.16 96.6,-110.86 158.03,-151.33 25.1,-16.55 52.34,-32.59 82.38,-33.72 28.27,-1.06 55.33,11.33 79.39,26.22 155.25,96.09 289.14,259.84 81.79,445.4"
         style="fill:#af08af;fill-opacity:1;fill-rule:nonzero;stroke:none"
         id="path26"
         inkscape:connector-curvature="0" /><path
         d="m 3174.5,1589.97 c 53.99,23.29 102.62,66.36 142.93,107.98 108.73,112.22 176.13,258.79 211.59,409.66 32.08,136.54 39.24,277.71 32.53,417.45 -0.57,11.82 -19.03,11.89 -18.47,0 15.07,-313.93 -47.26,-699.16 -328.21,-890.24 -15.7,-10.67 -32.19,-21.36 -49.7,-28.91 -10.88,-4.69 -1.48,-20.6 9.33,-15.94"
         style="fill:#f25a5f;fill-opacity:1;fill-rule:nonzero;stroke:none"
         id="path28"
         inkscape:connector-curvature="0" /><path
         d="m 3531.56,2160.45 c 0,0 17.79,101.69 152.53,117.79 0,0 -49.15,-120.35 -152.53,-117.79"
         style="fill:#f25a5f;fill-opacity:1;fill-rule:nonzero;stroke:none"
         id="path30"
         inkscape:connector-curvature="0" /><path
         d="m 3487.39,2010.13 c 0,0 41.04,94.73 175.82,78.93 0,0 -75.89,-105.55 -175.82,-78.93"
         style="fill:#f25a5f;fill-opacity:1;fill-rule:nonzero;stroke:none"
         id="path32"
         inkscape:connector-curvature="0" /><path
         d="m 3430.15,1877.64 c 0,0 61.23,83.14 189.04,37.53 0,0 -97.61,-85.86 -189.04,-37.53"
         style="fill:#f25a5f;fill-opacity:1;fill-rule:nonzero;stroke:none"
         id="path34"
         inkscape:connector-curvature="0" /><path
         d="m 3552.25,2318.36 c 0,0 17.49,99.97 149.94,115.8 0,0 -48.31,-118.31 -149.94,-115.8"
         style="fill:#f25a5f;fill-opacity:1;fill-rule:nonzero;stroke:none"
         id="path36"
         inkscape:connector-curvature="0" /><path
         d="m 3554.05,2492.09 c 0,0 -75.41,67.92 -18.48,188.55 0,0 74.58,-103.78 18.48,-188.55"
         style="fill:#f25a5f;fill-opacity:1;fill-rule:nonzero;stroke:none"
         id="path38"
         inkscape:connector-curvature="0" /><path
         d="m 3554.51,2389.04 c 0,0 -99.81,18.43 -114.41,151.02 0,0 117.87,-49.42 114.41,-151.02"
         style="fill:#f25a5f;fill-opacity:1;fill-rule:nonzero;stroke:none"
         id="path40"
         inkscape:connector-curvature="0" /><path
         d="m 3544.56,2236.74 c 0,0 -99.81,18.41 -114.41,151 0,0 117.86,-49.41 114.41,-151"
         style="fill:#f25a5f;fill-opacity:1;fill-rule:nonzero;stroke:none"
         id="path42"
         inkscape:connector-curvature="0" /><path
         d="m 3518.64,2094.08 c 0,0 -98.26,25.37 -103.54,158.66 0,0 114.12,-57.55 103.54,-158.66"
         style="fill:#f25a5f;fill-opacity:1;fill-rule:nonzero;stroke:none"
         id="path44"
         inkscape:connector-curvature="0" /><path
         d="m 3473.36,1951.57 c 0,0 -98.27,25.37 -103.54,158.66 0,0 114.11,-57.56 103.54,-158.66"
         style="fill:#f25a5f;fill-opacity:1;fill-rule:nonzero;stroke:none"
         id="path46"
         inkscape:connector-curvature="0" /><path
         d="M 3191.65,1232.17 H 2180.4 c -116.79,0 -211.48,94.68 -211.48,211.48 v 2389.26 c 0,116.8 94.69,211.48 211.48,211.48 h 1011.25 c 116.78,0 211.47,-94.68 211.47,-211.48 V 1443.65 c 0,-116.8 -94.69,-211.48 -211.47,-211.48"
         style="fill:#5b43a4;fill-opacity:1;fill-rule:nonzero;stroke:none"
         id="path48"
         inkscape:connector-curvature="0" /><path
         d="M 3188.81,1331.57 H 2183.23 c -81.79,0 -148.1,66.31 -148.1,148.1 v 2333.92 c 0,81.8 66.31,148.11 148.1,148.11 h 1005.58 c 81.79,0 148.1,-66.31 148.1,-148.11 V 1479.67 c 0,-81.79 -66.31,-148.1 -148.1,-148.1"
         style="fill:#fefcff;fill-opacity:1;fill-rule:nonzero;stroke:none"
         id="path50"
         inkscape:connector-curvature="0" /><path
         d="m 3075.55,3961.7 h -84.66 c -25.97,0 -47.03,-21.06 -47.03,-47.04 v -33.61 c 0,-25.98 -21.06,-47.03 -47.04,-47.03 h -377.53 c -25.97,0 -47.03,21.05 -47.03,47.03 v 33.61 c 0,25.98 -21.06,47.04 -47.03,47.04 h -240.39 v 24.13 h 890.71 v -24.13"
         style="fill:#5b43a4;fill-opacity:1;fill-rule:nonzero;stroke:none"
         id="path52"
         inkscape:connector-curvature="0" /><path
         d="m 2722.19,3556.35 c 5.53,2.95 9.33,8.72 9.33,15.4 0,9.69 -7.84,17.53 -17.52,17.53 -9.69,0 -17.54,-7.84 -17.54,-17.53 0,-6.68 3.82,-12.45 9.34,-15.4 -11.07,-3.5 -19.14,-13.89 -19.14,-26.07 v -13.79 h 54.68 v 13.79 c 0,12.18 -8.08,22.57 -19.15,26.07"
         style="fill:#3c366e;fill-opacity:1;fill-rule:nonzero;stroke:none"
         id="path54"
         inkscape:connector-curvature="0" /><g
         id="g56"
         transform="scale(10)"><text
           transform="matrix(1,0,0,-1,248.069,341.962)"
           style="font-variant:normal;font-weight:normal;font-size:6.02678013px;font-family:Montserrat;-inkscape-font-specification:Montserrat-Regular;writing-mode:lr-tb;fill:#3c366e;fill-opacity:1;fill-rule:nonzero;stroke:none"
           id="text60"><tspan
             x="0 4.3332548 6.6721125 10.221907 13.777707 16.109735 19.74991 21.328024 25.619049 28.957952 32.296829 36.076134 40.132156 44.212288"
             y="0"
             sodipodi:role="line"
             id="tspan58">Create Account</tspan></text>
</g><path
         d="m 2940.31,1717.31 h -522.12 c -5.41,0 -9.79,4.38 -9.79,9.79 v 102.05 c 0,5.41 4.38,9.78 9.79,9.78 h 522.12 c 5.4,0 9.78,-4.37 9.78,-9.78 V 1727.1 c 0,-5.41 -4.38,-9.79 -9.78,-9.79"
         style="fill:#b5295f;fill-opacity:1;fill-rule:nonzero;stroke:none"
         id="path62"
         inkscape:connector-curvature="0" /><g
         id="g64"
         transform="scale(10)"><text
           transform="matrix(1,0,0,-1,258.579,176.492)"
           style="font-variant:normal;font-weight:normal;font-size:4.48928022px;font-family:Montserrat;-inkscape-font-specification:Montserrat-Regular;writing-mode:lr-tb;fill:#eceddb;fill-opacity:1;fill-rule:nonzero;stroke:none"
           id="text68"><tspan
             x="0 3.2457495 5.9566884 9.036335 10.243365 12.438623 14.17592 16.887444"
             y="0"
             sodipodi:role="line"
             id="tspan66">Register</tspan></text>
</g><g
         id="g70"><g
           id="g72"
           clip-path="url(#clipPath76)"><path
             d="m 2223.25,3255.97 h 287.602 v 30.6328 H 2223.25 Z"
             style="fill:#ebe1e1;fill-opacity:1;fill-rule:nonzero;stroke:none"
             id="path78"
             inkscape:connector-curvature="0" /><g
             id="g80"
             transform="scale(10)"><text
               transform="matrix(1,0,0,-1,221.857,325.617)"
               style="font-variant:normal;font-weight:normal;font-size:4.10148001px;font-family:Montserrat;-inkscape-font-specification:Montserrat-Regular;writing-mode:lr-tb;fill:#797aa1;fill-opacity:1;fill-rule:nonzero;stroke:none"
               id="text84"><tspan
                 x="0 2.74389 7.0955606 9.5154333 10.617975 11.721273 12.796472 15.716383 18.496649 21.277452 22.86924 25.345802 27.351425"
                 y="0"
                 sodipodi:role="line"
                 id="tspan82">Email Address</tspan></text>
</g></g></g><g
         id="g86"
         transform="scale(10)"><text
           transform="matrix(1,0,0,-1,226.468,312.23)"
           style="font-variant:normal;font-weight:normal;font-size:4.10148001px;font-family:Montserrat;-inkscape-font-specification:Montserrat-Regular;writing-mode:lr-tb;fill:#3c366e;fill-opacity:1;fill-rule:nonzero;stroke:none"
           id="text90"><tspan
             x="0 2.1611371 4.7333999 7.4931588 9.0849466 11.561508 15.914058 18.333002 19.4363 20.539598 24.775915 27.590361 31.942032 34.361904 35.464447 36.567745 37.375366"
             y="0"
             sodipodi:role="line"
             id="tspan88">youremail@gmail.c</tspan></text>
</g><path
         d="m 3181.82,3062.3 v 2.5 h -935.66 c -13.85,0.02 -25.06,11.23 -25.08,25.08 v 94.13 c 0.02,13.85 11.23,25.06 25.08,25.08 h 935.66 c 13.87,-0.02 25.07,-11.23 25.09,-25.08 v -94.13 c -0.02,-13.85 -11.22,-25.06 -25.09,-25.08 v -2.5 -2.5 c 16.63,0 30.09,13.46 30.09,30.08 v 94.13 c 0,16.61 -13.46,30.08 -30.09,30.08 h -935.66 c -16.62,0 -30.08,-13.47 -30.08,-30.08 v -94.13 c 0,-16.62 13.46,-30.08 30.08,-30.08 h 935.66 v 2.5"
         style="fill:#3c366e;fill-opacity:1;fill-rule:nonzero;stroke:none"
         id="path92"
         inkscape:connector-curvature="0" /><g
         id="g94"><g
           id="g96"
           clip-path="url(#clipPath100)"><path
             d="m 2220.7,2915.69 h 163.402 v 37.1172 H 2220.7 Z"
             style="fill:#ebe1e1;fill-opacity:1;fill-rule:nonzero;stroke:none"
             id="path102"
             inkscape:connector-curvature="0" /><g
             id="g104"
             transform="scale(10)"><text
               transform="matrix(1,0,0,-1,221.857,292.385)"
               style="font-variant:normal;font-weight:normal;font-size:4.10148001px;font-family:Montserrat;-inkscape-font-specification:Montserrat-Regular;writing-mode:lr-tb;fill:#8383a6;fill-opacity:1;fill-rule:nonzero;stroke:none"
               id="text108"><tspan
                 x="0 2.8544817 5.4267445 8.1865034 10.963205 12.628407 14.334452"
                 y="0"
                 sodipodi:role="line"
                 id="tspan106">Country</tspan></text>
</g></g></g><g
         id="g110"
         transform="scale(10)"><text
           transform="matrix(1,0,0,-1,226.468,279.127)"
           style="font-variant:normal;font-weight:normal;font-size:4.10148001px;font-family:Montserrat;-inkscape-font-specification:Montserrat-Regular;writing-mode:lr-tb;fill:#3c366e;fill-opacity:1;fill-rule:nonzero;stroke:none"
           id="text114"><tspan
             x="0 2.3583949 4.9300227 7.6903191 9.3350124 10.4096 11.997481 14.412519 16.602711"
             y="0"
             sodipodi:role="line"
             id="tspan112">Your text</tspan></text>
</g><path
         d="m 3181.82,2728.69 v 2.5 h -935.66 c -13.85,0.02 -25.06,11.23 -25.08,25.09 v 94.12 c 0.02,13.86 11.23,25.06 25.08,25.09 h 935.66 c 13.87,-0.03 25.07,-11.23 25.09,-25.09 v -94.12 c -0.02,-13.86 -11.22,-25.07 -25.09,-25.09 v -2.5 -2.5 c 16.63,0 30.09,13.47 30.09,30.09 v 94.12 c 0,16.62 -13.46,30.08 -30.09,30.09 h -935.66 c -16.62,-0.01 -30.08,-13.47 -30.08,-30.09 v -94.12 c 0,-16.62 13.46,-30.09 30.08,-30.09 h 935.66 v 2.5"
         style="fill:#3c366e;fill-opacity:1;fill-rule:nonzero;stroke:none"
         id="path116"
         inkscape:connector-curvature="0" /><g
         id="g118"><g
           id="g120"
           clip-path="url(#clipPath124)"><path
             d="m 2220.7,2564.81 h 76.832 v 38.5898 H 2220.7 Z"
             style="fill:#ebe1e1;fill-opacity:1;fill-rule:nonzero;stroke:none"
             id="path126"
             inkscape:connector-curvature="0" /><g
             id="g128"
             transform="scale(10)"><text
               transform="matrix(1,0,0,-1,221.857,257.297)"
               style="font-variant:normal;font-weight:normal;font-size:4.10148001px;font-family:Montserrat;-inkscape-font-specification:Montserrat-Regular;writing-mode:lr-tb;fill:#8383a6;fill-opacity:1;fill-rule:nonzero;stroke:none"
               id="text132"><tspan
                 x="0 2.9489641 4.0515056 5.6764965"
                 y="0"
                 sodipodi:role="line"
                 id="tspan130">City</tspan></text>
</g></g></g><g
         id="g134"
         transform="scale(10)"><text
           transform="matrix(1,0,0,-1,226.468,244.039)"
           style="font-variant:normal;font-weight:normal;font-size:4.10148001px;font-family:Montserrat;-inkscape-font-specification:Montserrat-Regular;writing-mode:lr-tb;fill:#3c366e;fill-opacity:1;fill-rule:nonzero;stroke:none"
           id="text138"><tspan
             x="0 2.3583949 4.9300227 7.6903191 9.3350124 10.4096 13.358564 14.461863 16.085876"
             y="0"
             sodipodi:role="line"
             id="tspan136">Your City</tspan></text>
</g><path
         d="m 3181.82,2377.8 v 2.5 h -935.66 c -13.85,0.02 -25.06,11.22 -25.08,25.09 v 94.11 c 0.02,13.86 11.23,25.07 25.08,25.09 h 935.66 c 13.87,-0.02 25.07,-11.23 25.09,-25.09 v -94.11 c -0.02,-13.87 -11.22,-25.07 -25.09,-25.09 v -2.5 -2.5 c 16.63,0 30.09,13.46 30.09,30.09 v 94.11 c 0,16.62 -13.46,30.09 -30.09,30.09 h -935.66 c -16.62,0 -30.08,-13.47 -30.08,-30.09 v -94.11 c 0,-16.63 13.46,-30.09 30.08,-30.09 h 935.66 v 2.5"
         style="fill:#3c366e;fill-opacity:1;fill-rule:nonzero;stroke:none"
         id="path140"
         inkscape:connector-curvature="0" /><g
         id="g142"><g
           id="g144"
           clip-path="url(#clipPath148)"><path
             d="m 2223.25,2220.17 h 188.879 v 30.6367 H 2223.25 Z"
             style="fill:#ebe1e1;fill-opacity:1;fill-rule:nonzero;stroke:none"
             id="path150"
             inkscape:connector-curvature="0" /><g
             id="g152"
             transform="scale(10)"><text
               transform="matrix(1,0,0,-1,221.857,222.038)"
               style="font-variant:normal;font-weight:normal;font-size:4.10148001px;font-family:Montserrat;-inkscape-font-specification:Montserrat-Regular;writing-mode:lr-tb;fill:#8383a6;fill-opacity:1;fill-rule:nonzero;stroke:none"
               id="text156"><tspan
                 x="0 2.8837786 5.3027239 7.3083477 9.2732 12.817146 15.388774 16.980562"
                 y="0"
                 sodipodi:role="line"
                 id="tspan154">Password</tspan></text>
</g></g></g><g
         id="g158"
         transform="scale(10)"><text
           transform="matrix(1,0,0,-1,226.468,208.78)"
           style="font-variant:normal;font-weight:normal;font-size:4.10148001px;font-family:Montserrat;-inkscape-font-specification:Montserrat-Regular;writing-mode:lr-tb;fill:#3c366e;fill-opacity:1;fill-rule:nonzero;stroke:none"
           id="text162"><tspan
             x="0 2.74389 5.5205922 7.1857929 8.891839 11.115476 12.190063 14.958611 17.378485 19.38335 21.348204 24.892174 27.463802 29.05559"
             y="0"
             sodipodi:role="line"
             id="tspan160">Entry password</tspan></text>
</g><path
         d="m 3181.82,2025.21 v 2.5 h -935.66 c -13.85,0.03 -25.06,11.24 -25.08,25.09 v 94.12 c 0.02,13.85 11.23,25.06 25.08,25.09 h 935.66 c 13.87,-0.03 25.07,-11.24 25.09,-25.09 v -94.12 c -0.02,-13.85 -11.22,-25.06 -25.09,-25.09 v -2.5 -2.5 c 16.63,0 30.09,13.47 30.09,30.09 v 94.12 c 0,16.62 -13.46,30.09 -30.09,30.09 h -935.66 c -16.62,0 -30.08,-13.47 -30.08,-30.09 v -94.12 c 0,-16.62 13.46,-30.09 30.08,-30.09 h 935.66 v 2.5"
         style="fill:#3c366e;fill-opacity:1;fill-rule:nonzero;stroke:none"
         id="path164"
         inkscape:connector-curvature="0" /><path
         d="m 2668.06,3118.64 h 5 v 52.6914 h -5 z"
         style="fill:#29b8cd;fill-opacity:1;fill-rule:nonzero;stroke:none"
         id="path166"
         inkscape:connector-curvature="0" /><path
         d="m 2544.97,785.281 c -352.02,0 -637.38,9.43 -637.38,21.078 0,11.653 285.36,21.082 637.38,21.082 352.01,0 637.37,-9.429 637.37,-21.082 0,-11.648 -285.36,-21.078 -637.37,-21.078"
         style="fill:#c6b5d2;fill-opacity:1;fill-rule:nonzero;stroke:none"
         id="path168"
         inkscape:connector-curvature="0" /><path
         d="m 2612.28,2154.96 c 0,0 63.34,-97.8 77.68,-55.42 14.34,42.38 23.11,68.32 23.11,68.32 0,0 -17.99,29.49 -27.51,20.42 -9.96,-9.49 -22.88,7.75 -22.88,7.75 l -50.4,-41.07"
         style="fill:#f89e88;fill-opacity:1;fill-rule:nonzero;stroke:none"
         id="path170"
         inkscape:connector-curvature="0" /><path
         d="m 2925.34,2660.77 26.17,151.97 c 17.18,5.54 34.85,18.81 28.8,39.35 -3.03,10.25 -11.06,15.69 -20.52,19.26 -3.56,1.35 -21.85,6.6 -23.13,-0.45 l 9.96,54.77 -178.23,86.01 c 0,0 -16.25,-109.08 -16.44,-110.35 0.25,1.69 -17.32,5.64 -19.7,5.39 -8.95,-0.96 -17.67,-9.3 -21.19,-17.14 -9.28,-20.68 8.67,-46.82 31.07,-47.17 0,0 3.05,-48.94 14.4,-66.3 11.35,-17.36 63.75,-29.36 63.75,-29.36 l -5.75,-66.16 110.81,-19.82"
         style="fill:#f89e88;fill-opacity:1;fill-rule:nonzero;stroke:none"
         id="path172"
         inkscape:connector-curvature="0" /><path
         d="m 2985.53,2648.31 c -80.53,22.6 -193.65,42.49 -193.65,42.49 l -75.04,-534.42 316.13,9.76 -47.44,482.17"
         style="fill:#2ef6ba;fill-opacity:1;fill-rule:nonzero;stroke:none"
         id="path174"
         inkscape:connector-curvature="0" /><path
         d="m 2985.53,2648.31 c 105.16,-27.55 208.98,-48.35 317.11,-59.54 -24.08,109.52 -37.25,193.26 -68.73,286.3 30.05,7.61 88.68,22.6 118.73,30.21 0,0 99.56,-346.88 69.35,-393.12 -51.43,-78.71 -307.57,-26.89 -307.57,-26.89 l -121.16,21.6 -7.73,141.44"
         style="fill:#2ef6bb;fill-opacity:1;fill-rule:nonzero;stroke:none"
         id="path176"
         inkscape:connector-curvature="0" /><path
         d="m 2444.11,2530.66 c 0,0 339.34,165.99 354.94,159.87 15.59,-6.11 28.85,-83.06 28.85,-83.06 0,0 -123.02,-78.25 -313.25,-166.68 l 173.03,-235.51 -86.2,-61.83 c 0,0 -237.58,267.03 -228.54,322.21 6.96,42.59 71.17,65 71.17,65"
         style="fill:#2ef6bb;fill-opacity:1;fill-rule:nonzero;stroke:none"
         id="path178"
         inkscape:connector-curvature="0" /><path
         d="m 3347.53,2903.98 c 0,0 -14.05,98.17 -15.73,100.97 -1.68,2.8 -1.68,20.13 -26.89,15.95 0,0 -1.68,31.1 -16.24,31.67 -14.57,0.56 -30.81,-3.36 -30.81,-3.36 0,0 -16.4,79.75 -27.04,93.58 -11.62,15.1 -27.86,-24.68 -2.66,-121.89 0,0 13.97,-66.12 9.81,-68.55 -11.28,-6.58 -26.78,-5.39 -48.25,31.31 -22.78,38.97 -51.19,25.77 -37.18,-4.48 14,-30.25 33.85,-69.39 46.73,-80.03 12.88,-10.65 40.1,-9.05 40.1,-9.05 l 4,-12.63 104.16,26.51"
         style="fill:#f89e88;fill-opacity:1;fill-rule:nonzero;stroke:none"
         id="path180"
         inkscape:connector-curvature="0" /><path
         d="M 3032.97,2166.14 C 2994.9,1587.83 2865.62,874.109 2865.62,874.109 L 2992.23,820.52 H 2722.6 l 176.85,1262.1 h -60.58 L 2391.53,819.711 H 2122.2 l 153.23,55.859 447.17,1321.89 310.37,-31.32"
         style="fill:#6d53ff;fill-opacity:1;fill-rule:nonzero;stroke:none"
         id="path182"
         inkscape:connector-curvature="0" /><path
         d="m 2968.12,2867.32 c 15.07,30.13 32.7,103.27 -13.06,123.6 -23.74,10.55 -48.35,25.75 -66.54,37.92 -27.88,18.67 -62.54,26.08 -94.88,17.1 -5.19,-1.44 -10.25,-3.27 -15.01,-5.61 -31.93,-15.68 -53.51,-100.55 -53.51,-100.55 l 31.39,-7.86 c 0,0 35.01,-155.67 92.59,-187.66 l 57.52,-12.18 34.03,-7.64 27.47,142.88"
         style="fill:#252525;fill-opacity:1;fill-rule:nonzero;stroke:none"
         id="path184"
         inkscape:connector-curvature="0" /><path
         d="m 2926.41,3001.71 c 0.25,9.33 -0.11,18.6 -1.07,27.88 -0.39,3.78 -6.35,3.82 -5.96,0 0.96,-9.28 1.32,-18.55 1.08,-27.88 -0.1,-3.83 5.85,-3.83 5.95,0"
         style="fill:#c6503e;fill-opacity:1;fill-rule:nonzero;stroke:none"
         id="path186"
         inkscape:connector-curvature="0" /><path
         d="m 2926.41,3000.53 c 3.95,2.5 5.26,7.05 7.41,10.98 2.76,5.01 5.93,9.74 9.4,14.28 2.32,3.04 -2.84,6.01 -5.14,3.01 -2.74,-3.59 -5.3,-7.28 -7.61,-11.16 -1.95,-3.28 -3.77,-9.88 -7.06,-11.96 -3.23,-2.05 -0.24,-7.21 3,-5.15"
         style="fill:#c6503e;fill-opacity:1;fill-rule:nonzero;stroke:none"
         id="path188"
         inkscape:connector-curvature="0" /><path
         d="m 1187.09,938.711 c -352.012,0 -637.375,9.43 -637.375,21.07 0,11.649 285.363,21.09 637.375,21.09 352.02,0 637.38,-9.441 637.38,-21.09 0,-11.64 -285.36,-21.07 -637.38,-21.07"
         style="fill:#c6b5d2;fill-opacity:1;fill-rule:nonzero;stroke:none"
         id="path190"
         inkscape:connector-curvature="0" /><path
         d="m 1406.38,3172.57 c -11.96,2.74 -23.13,3.15 -38.43,4.58 -22.8,2.12 -43.61,-12.66 -60.88,-27.71 -17.26,-15.06 -29.71,-34.81 -40.88,-54.81 -11.42,-20.43 -22.08,-44.11 -15.34,-66.52 1.72,-5.71 4.55,-11.26 4.47,-17.21 -0.25,-18.54 -25.79,-25.54 -33.78,-42.26 -9.87,-20.67 10.28,-48.51 -3.38,-66.89 -6.83,-9.18 -19.96,-12.07 -26.42,-21.5 -5.07,-7.42 -4.86,-17.1 -4.46,-26.07 0.08,-1.84 0.25,-3.89 1.61,-5.15 1.13,-1.04 2.78,-1.24 4.31,-1.39 36.5,-3.5 72.82,-1.31 109.13,0.88 36.32,2.19 72.63,4.39 109.14,0.88 8.81,-0.85 17.7,-1.7 26.49,-0.66 12.63,1.49 24.44,6.77 36.01,12.04 63.1,28.76 126.27,36.21 187.93,67.95 2.58,1.33 5.33,2.82 6.63,5.42 0.99,1.99 0.96,4.33 0.73,6.55 -1.65,16.25 -13.66,30.97 -29.24,35.86 -16.06,5.04 -35.33,0.63 -48.74,10.82 -9.68,7.34 -13.19,20.23 -14.46,32.31 -2.6,24.54 0.2,52.94 -17.57,70.06 -13.91,13.41 -36.24,14.87 -50.21,28.23 -7.96,7.6 -12.25,18.18 -18.67,27.13 -18.81,26.18 -50.84,41.36 -83.99,27.46"
         style="fill:#563a56;fill-opacity:1;fill-rule:nonzero;stroke:none"
         id="path192"
         inkscape:connector-curvature="0" /><path
         d="M 1284.38,2328.96 877.434,1041.15 717.266,979.391 H 954.957 L 1414.43,2192.66 c 2.94,7.8 10.41,12.95 18.73,12.95 11.91,0 21.19,-10.33 19.93,-22.17 L 1332.02,979.391 h 240.59 l -160.64,53.119 c 0,0 149.67,700.13 182.98,919.2 33.31,219.06 -14.97,373.84 -14.97,373.84 0,0 -155.97,49.47 -295.6,3.41"
         style="fill:#465d8f;fill-opacity:1;fill-rule:nonzero;stroke:none"
         id="path194"
         inkscape:connector-curvature="0" /><path
         d="m 1289.15,2792.46 c 37.3,38.97 185.58,43.45 239.18,21.44 53.6,-22.01 152.23,-306.76 152.23,-306.76 l -98.09,-38.51 -60.86,238.06 -190.76,26.28 -41.7,59.49"
         style="fill:#6600ff;fill-opacity:1;fill-rule:nonzero;stroke:none"
         id="path196"
         inkscape:connector-curvature="0" /><path
         d="m 1539.77,2671.72 c 0,0 16.71,39.41 20.28,69.84 3.56,30.42 -37.8,60.17 -37.8,60.17 l -224.44,-58.16 13.95,-133.69 -32.93,-270.13 285.18,-10.58 -28.66,341.42"
         style="fill:#6600ff;fill-opacity:1;fill-rule:nonzero;stroke:none"
         id="path198"
         inkscape:connector-curvature="0" /><path
         d="m 1314.9,2664.02 c -0.95,0 -1.92,0.29 -2.74,0.9 -2.01,1.52 -2.42,4.38 -0.91,6.4 l 15.95,21.24 c 1.51,2.01 4.37,2.43 6.38,0.91 2.02,-1.51 2.42,-4.37 0.91,-6.38 l -15.93,-21.25 c -0.91,-1.19 -2.28,-1.82 -3.66,-1.82"
         style="fill:#3c91b5;fill-opacity:1;fill-rule:nonzero;stroke:none"
         id="path200"
         inkscape:connector-curvature="0" /><path
         d="m 1172.44,2293.74 c 17.15,9.99 34.3,19.97 51.45,29.95"
         style="fill:#63c9e1;fill-opacity:1;fill-rule:nonzero;stroke:none"
         id="path202"
         inkscape:connector-curvature="0" /><path
         d="m 1394.6,2824.62 c -3.12,29.81 12.11,60.04 -35.97,79.31 -66.3,26.56 -80.52,255.16 39.24,255.68 119.75,0.51 113.88,-150.39 113.4,-195.19 -0.48,-44.8 -39.93,-56.21 -49.78,-72.43 -9.86,-16.22 -1.35,-67.37 -1.35,-67.37 h -65.54"
         style="fill:#f89e88;fill-opacity:1;fill-rule:nonzero;stroke:none"
         id="path204"
         inkscape:connector-curvature="0" /><path
         d="m 1326.65,2997.75 c 0,-14.68 -10.29,-26.59 -22.99,-26.59 -12.7,0 -22.99,11.91 -22.99,26.59 0,14.68 10.29,26.59 22.99,26.59 12.7,0 22.99,-11.91 22.99,-26.59"
         style="fill:#f89e88;fill-opacity:1;fill-rule:nonzero;stroke:none"
         id="path206"
         inkscape:connector-curvature="0" /><path
         d="m 1541.5,3018.29 c 0,-14.68 -10.29,-26.58 -22.99,-26.58 -12.7,0 -23,11.9 -23,26.58 0,14.69 10.3,26.59 23,26.59 12.7,0 22.99,-11.9 22.99,-26.59"
         style="fill:#f89e88;fill-opacity:1;fill-rule:nonzero;stroke:none"
         id="path208"
         inkscape:connector-curvature="0" /><path
         d="m 803.723,1965.11 c -76.543,0 -138.594,62.05 -138.594,138.59 0,76.54 62.051,138.59 138.594,138.59 76.539,0 138.59,-62.05 138.59,-138.59 0,-76.54 -62.051,-138.59 -138.59,-138.59 z m 1210.617,569.14 -35.51,89.99 -1004.002,-394.16 c -38.75,52.39 -100.957,86.35 -171.105,86.35 -117.493,0 -212.735,-95.24 -212.735,-212.73 0,-117.48 95.242,-212.73 212.735,-212.73 117.488,0 212.737,95.25 212.737,212.73 0,8.74 -0.59,17.33 -1.61,25.79 l 764.59,309.64 41.99,-92.37 93.26,42.73 -32.83,73.5 30.22,15.99 35.55,-70.7 66.71,35.62 -36.95,75.38 36.95,14.97"
         style="fill:url(#linearGradient1131);fill-opacity:1;fill-rule:nonzero;stroke:none"
         id="path210"
         inkscape:connector-curvature="0" /><path
         d="m 1289.15,2792.46 c 0,0 -253.15,-225.39 -254.53,-267.22 -1.39,-41.83 149.14,-261.88 149.14,-261.88 l 75.25,47.57 -105.39,197.28 171.46,163.51 c 0,0 5.62,-37.99 19.34,-48.33 l 7.63,150.41 -62.9,18.66"
         style="fill:#6600ff;fill-opacity:1;fill-rule:nonzero;stroke:none"
         id="path212"
         inkscape:connector-curvature="0" /><path
         d="m 1487.24,3107.03 c -32.91,-1.69 -178.75,-16.53 -178.75,-16.53 0,0 21.33,87.55 89.38,90.99 89.37,4.52 89.37,-74.46 89.37,-74.46"
         style="fill:#563a56;fill-opacity:1;fill-rule:nonzero;stroke:none"
         id="path214"
         inkscape:connector-curvature="0" /><path
         d="m 1308.67,3014.58 c 0,0 118.18,11.07 138.89,66.85 0,0 39.24,-50.16 62.22,-47.64 0,0 3.77,66 -10.52,74.93 -14.29,8.93 -195.6,-9.48 -195.6,-9.48 0,0 -4.68,-42.22 5.01,-84.66"
         style="fill:#563a56;fill-opacity:1;fill-rule:nonzero;stroke:none"
         id="path216"
         inkscape:connector-curvature="0" /><path
         d="m 1186.92,2266.03 c 0,0 32.29,-68.07 34.14,-69.72 1.85,-1.65 5.75,-14.23 23.1,-5.52 0,0 8.23,-22.2 18.92,-19.33 10.7,2.88 21.6,9.38 21.6,9.38 0,0 12.97,-17.27 22.58,-8.15 11.23,10.68 0.6,22.52 -7.41,35.37 0,0 -25.01,44.84 -22.54,47.53 6.7,7.32 18.22,9.94 42.05,-11.85 25.31,-23.15 42.95,-7.17 25.98,11.63 -16.98,18.79 -40.19,42.72 -51.94,47.55 -11.74,4.81 -31.12,-2.47 -31.12,-2.47 l -5.75,8.27 -69.61,-42.69"
         style="fill:#f89e88;fill-opacity:1;fill-rule:nonzero;stroke:none"
         id="path218"
         inkscape:connector-curvature="0" /><path
         d="m 1704.46,2408.77 c 0,0 -18.13,-51.54 -49.79,-60.19 -31.66,-8.65 -209.21,-44.71 -209.21,-44.71 v 70.23 l 259,34.67"
         style="fill:#6600ff;fill-opacity:1;fill-rule:nonzero;stroke:none"
         id="path220"
         inkscape:connector-curvature="0" /><path
         d="m 1445.46,2365.68 h -13.53 c 0,0 -3.04,9.5 -4.96,12.62 -5.55,8.99 -79.87,18.45 -78.51,8.73 1.36,-9.73 13.59,-12.13 39.79,-16.98 0,0 -98.02,-23.78 -88.81,-31.55 9.23,-7.76 70.37,10.08 70.37,10.08 0,0 -66.33,-21.57 -61.63,-36.28 2.69,-8.43 69.91,11.39 69.91,11.39 0,0 -68.45,-24.49 -56.32,-32.75 12.13,-8.25 87.83,10.34 95.11,12.93 7.28,2.6 10.09,16.67 10.09,16.67 l 18.49,3.15 v 41.99"
         style="fill:#f89e88;fill-opacity:1;fill-rule:nonzero;stroke:none"
         id="path222"
         inkscape:connector-curvature="0" /><path
         d="m 1389.64,3208.25 c 2.6,-10.84 3.7,-24.34 9.91,-33.81 2.58,-3.94 8.93,-0.27 6.33,3.69 -5.74,8.75 -6.77,22.04 -9.17,32.07 -1.1,4.58 -8.17,2.64 -7.07,-1.95"
         style="fill:#563a56;fill-opacity:1;fill-rule:nonzero;stroke:none"
         id="path224"
         inkscape:connector-curvature="0" /><path
         d="m 1405.57,3173.76 c 3.74,6.66 7.74,13.15 12.01,19.47 2.66,3.92 -3.69,7.59 -6.32,3.7 -4.28,-6.33 -8.28,-12.81 -12.02,-19.47 -2.31,-4.12 4.02,-7.82 6.33,-3.7"
         style="fill:#563a56;fill-opacity:1;fill-rule:nonzero;stroke:none"
         id="path226"
         inkscape:connector-curvature="0" /><path
         d="m 1419.75,3019.66 c -0.27,-8.43 -0.07,-16.8 0.92,-25.19 0.5,-4.29 0.09,-11.95 3.07,-15.22 1.7,-1.86 5.28,-1.74 7.43,-2.08 8.04,-1.24 16.14,-2.16 24.19,-3.24 -0.43,1.04 -0.86,2.09 -1.3,3.13 -6.85,-6.5 -14.23,-11.29 -22.91,-14.96 -2.16,-0.92 -0.29,-4.08 1.85,-3.17 8.98,3.81 16.61,8.85 23.66,15.54 1.28,1.22 0.16,2.93 -1.3,3.12 -8.4,1.13 -25.51,0.18 -29.87,9.05 -4.09,8.33 -2.36,24.14 -2.08,33.02 0.08,2.36 -3.58,2.36 -3.66,0"
         style="fill:#f57c68;fill-opacity:1;fill-rule:nonzero;stroke:none"
         id="path228"
         inkscape:connector-curvature="0" /><path
         d="m 1457.37,2994.46 c 1.05,8.35 -4.26,27.92 6.27,31.96 9.36,3.6 15.27,-4.19 16.74,-12.09 0.93,-4.95 1.8,-9.91 2.71,-14.88 0.42,-2.31 3.95,-1.33 3.53,0.98 -2.21,12.15 -2.73,32.93 -20.84,30.46 -16.87,-2.3 -10.72,-25.68 -12.07,-36.43 -0.3,-2.33 3.37,-2.31 3.66,0"
         style="fill:#4b3a3e;fill-opacity:1;fill-rule:nonzero;stroke:none"
         id="path230"
         inkscape:connector-curvature="0" /><path
         d="m 1362.81,2989.46 c 1.05,8.35 -4.26,27.92 6.27,31.96 9.36,3.59 15.27,-4.2 16.74,-12.09 0.92,-4.95 1.8,-9.92 2.71,-14.88 0.42,-2.31 3.95,-1.33 3.53,0.98 -2.21,12.16 -2.73,32.93 -20.85,30.46 -16.86,-2.3 -10.71,-25.68 -12.06,-36.43 -0.3,-2.34 3.37,-2.31 3.66,0"
         style="fill:#4b3a3e;fill-opacity:1;fill-rule:nonzero;stroke:none"
         id="path232"
         inkscape:connector-curvature="0" /><path
         d="m 1387.78,2968.2 c 3.94,-30.49 55.57,-36.6 74.54,-18.1 1.69,1.65 -0.9,4.24 -2.59,2.59 -15.84,-15.44 -64.75,-11.84 -68.28,15.51 -0.3,2.31 -3.97,2.34 -3.67,0"
         style="fill:#f57c68;fill-opacity:1;fill-rule:nonzero;stroke:none"
         id="path234"
         inkscape:connector-curvature="0" /><path
         d="m 1387.05,2963.08 c 1.06,3.24 4.32,5.33 7.71,4.76 2.31,-0.39 3.3,3.15 0.97,3.53 -5.42,0.91 -10.49,-2.04 -12.21,-7.31 -0.73,-2.25 2.8,-3.21 3.53,-0.98"
         style="fill:#f57c68;fill-opacity:1;fill-rule:nonzero;stroke:none"
         id="path236"
         inkscape:connector-curvature="0" /><path
         d="m 1358.3,2966.4 c -2.56,0 -4.85,0.29 -6.47,0.81 -3.03,1 -5.17,2.07 -6.3,4.01 -0.48,0.97 -0.45,2.2 0.32,3.51 0.74,1.31 2.24,2.61 4.06,3.65 3.7,2.03 7.6,3.42 12.56,4.51 3.62,0.77 7.12,1.19 10.16,1.19 5.04,0 8.82,-1.14 9.83,-3.73 1.63,-4.09 -5.59,-10.76 -16.61,-13.13 -2.56,-0.57 -5.17,-0.82 -7.55,-0.82"
         style="fill:#f68a82;fill-opacity:1;fill-rule:nonzero;stroke:none"
         id="path238"
         inkscape:connector-curvature="0" /><path
         d="m 1478.52,2974.78 c -2.56,0 -4.85,0.3 -6.47,0.81 -3.03,1 -5.17,2.07 -6.3,4.01 -0.49,0.98 -0.45,2.2 0.32,3.51 0.74,1.31 2.24,2.61 4.06,3.65 3.7,2.03 7.6,3.42 12.56,4.52 3.62,0.76 7.12,1.18 10.16,1.18 5.04,0 8.82,-1.14 9.84,-3.72 1.62,-4.09 -5.6,-10.77 -16.61,-13.13 -2.57,-0.58 -5.18,-0.83 -7.56,-0.83"
         style="fill:#f68a82;fill-opacity:1;fill-rule:nonzero;stroke:none"
         id="path240"
         inkscape:connector-curvature="0" /><path
         d="m 1302.13,3011.54 c -7.21,-0.25 -11.04,-6.98 -10.4,-13.71 0.65,-6.81 5.44,-12.03 12.34,-12.52 2.36,-0.16 2.35,3.5 0,3.67 -9.69,0.68 -12.77,18.51 -1.94,18.89 2.34,0.08 2.36,3.75 0,3.67"
         style="fill:#f57c68;fill-opacity:1;fill-rule:nonzero;stroke:none"
         id="path242"
         inkscape:connector-curvature="0" /><path
         d="m 1292.34,3001.54 c 3.48,-4.37 8.78,-6.67 14.34,-6.32 2.34,0.15 2.36,3.82 0,3.67 -4.71,-0.31 -8.82,1.55 -11.75,5.24 -1.47,1.84 -4.05,-0.77 -2.59,-2.59"
         style="fill:#f57c68;fill-opacity:1;fill-rule:nonzero;stroke:none"
         id="path244"
         inkscape:connector-curvature="0" /><path
         d="m 1516.69,3005.24 c 7.93,-1.89 12.32,5.32 13.31,12.19 1.1,7.58 -3.56,14.93 -11.61,15.66 -2.35,0.21 -2.34,-3.45 0,-3.66 5.14,-0.47 8.58,-5.62 8.15,-10.42 -0.41,-4.66 -2.75,-11.7 -8.87,-10.24 -2.3,0.54 -3.27,-2.99 -0.98,-3.53"
         style="fill:#f57c68;fill-opacity:1;fill-rule:nonzero;stroke:none"
         id="path246"
         inkscape:connector-curvature="0" /><path
         d="m 1518.91,3016.05 c 3.46,3.12 5.64,7.13 6.31,11.75 0.33,2.31 -3.2,3.31 -3.53,0.98 -0.59,-4.05 -2.33,-7.4 -5.38,-10.15 -1.75,-1.58 0.85,-4.16 2.6,-2.58"
         style="fill:#f57c68;fill-opacity:1;fill-rule:nonzero;stroke:none"
         id="path248"
         inkscape:connector-curvature="0" /><g
         id="g250"
         transform="matrix(4.7350139,0,0,4.9870795,1453.0663,219.48356)"><text
           transform="matrix(1,0,0,-1,137.124,51.5719)"
           style="font-variant:normal;font-weight:500;font-size:15.31639957px;font-family:Montserrat;-inkscape-font-specification:Montserrat-Medium;writing-mode:lr-tb;fill:#5b43a4;fill-opacity:1;fill-rule:nonzero;stroke:none"
           id="text254"><tspan
             x="0 12.865776 23.296244 27.569521 31.842796 42.319393 51.693031"
             y="0"
             sodipodi:role="line"
             id="tspan252">Online </tspan></text>
<text
           transform="matrix(1,0,0,-1,192.9373,51.5719)"
           style="font-variant:normal;font-weight:900;font-size:15.31639957px;font-family:Montserrat;-inkscape-font-specification:Montserrat-Black;writing-mode:lr-tb;fill:#5b43a4;fill-opacity:1;fill-rule:nonzero;stroke:none"
           id="text258"><tspan
             x="0 11.410718 21.412327 32.300774 37.293919 45.947685 52.993229 59.900948 69.687561 76.733109 81.726257 92.110039 102.86215 107.45708 118.62305 129.00687 139.91214 149.25493 159.25653 169.97801"
             y="0"
             sodipodi:role="line"
             id="tspan256">Registration Concept</tspan></text>
</g><path
         d="m 2706.0971,386.1835 c -2.8869,-3.46477 -5.3728,-7.27126 -7.4043,-11.33676 l -3.1074,1.88023 c -0.4477,2.31634 -2.3389,3.91571 -4.4038,3.63563 -2.2119,-0.30505 -3.7957,-2.64559 -3.5417,-5.22642 0.2606,-2.58473 2.2654,-4.43141 4.4773,-4.13572 l 1.2296,0.41115 3.0138,-1.82484 c -1.6773,-4.3214 -2.8935,-8.88388 -3.6019,-13.60474 l 4.9919,-1.0236 c 1.537,10.18133 5.6802,19.55907 11.9684,27.08935 l -3.6219,4.13572"
         style="fill:#84a6b3;fill-opacity:1;fill-rule:nonzero;stroke:none;stroke-width:0.7220512"
         id="path260"
         inkscape:connector-curvature="0" /><path
         d="m 3094.8195,224.36092 c -1.136,0 -2.272,-0.0398 -3.4014,-0.12482 l -0.4945,4.88469 c 1.2563,1.16169 1.978,3.03567 1.7776,5.02279 -0.3074,3.0661 -2.6864,5.25996 -5.3127,4.9003 -2.6262,-0.36591 -4.5107,-3.13554 -4.1966,-6.211 0.2005,-1.98087 1.2697,-3.59584 2.6998,-4.39162 l 0.4945,-4.86676 c -4.7714,-0.905 -9.3757,-2.59019 -13.7661,-5.05009 l 2.1852,-5.32706 c 6.2415,3.48662 12.9775,5.25763 20.0142,5.25763 3.328,0 6.6425,-0.4213 9.8635,-1.24049 l 1.0692,5.79048 c -3.5752,0.90501 -7.2506,1.35595 -10.9327,1.35595"
         style="fill:#84a6b3;fill-opacity:1;fill-rule:nonzero;stroke:none;stroke-width:0.7220512"
         id="path262"
         inkscape:connector-curvature="0" /><path
         d="m 2786.8891,384.26973 c 2.2119,0.31363 3.7823,2.65416 3.5084,5.23577 -0.2673,2.59019 -2.2721,4.42517 -4.4907,4.1053 -2.0649,-0.29881 -3.5752,-2.37408 -3.5418,-4.75128 l -2.7799,-2.83439 c -2.7933,3.35554 -5.9408,6.34519 -9.4024,8.88701 l -2.6997,-5.00172 c 7.578,-5.57672 13.4987,-13.46354 17.1274,-22.82568 l 4.6176,2.4404 c -1.6773,4.33077 -3.7957,8.36273 -6.3016,12.06234 l 2.693,2.73062 1.2697,-0.0484"
         style="fill:#84a6b3;fill-opacity:1;fill-rule:nonzero;stroke:none;stroke-width:0.7220512"
         id="path264"
         inkscape:connector-curvature="0" /><path
         d="m 2739.1156,324.48546 c -2.5795,-0.17086 -5.1857,-0.26526 -7.7384,-0.26526 -5.8807,0 -11.5809,0.4759 -16.5594,1.39573 -2.6129,0.49386 -5.6534,1.21006 -8.4935,2.27968 6.9966,-14.51209 20.5154,-24.38056 36.0123,-24.38056 19.0786,0 35.1635,14.95445 39.7544,35.13844 -4.5508,-3.50144 -10.0572,-6.43647 -16.4257,-8.75282 -7.8787,-2.87027 -17.0672,-4.74504 -26.5497,-5.41521"
         style="fill:#84a6b3;fill-opacity:1;fill-rule:nonzero;stroke:none;stroke-width:0.7220512"
         id="path266"
         inkscape:connector-curvature="0" /><path
         d="m 2759.9985,348.56097 c -5.0119,0 -9.0949,4.76689 -9.0949,10.61823 0,5.85133 4.083,10.6112 9.0949,10.6112 5.012,0 9.0883,-4.75987 9.0883,-10.6112 0,-5.85134 -4.0763,-10.61823 -9.0883,-10.61823 z m -31.6619,-7.08245 c -6.8095,0 -12.356,6.47626 -12.356,14.43329 0,7.95704 5.5465,14.42472 12.356,14.42472 6.8162,0 12.3627,-6.46768 12.3627,-14.42472 0,-7.95703 -5.5465,-14.43329 -12.3627,-14.43329 z m 14.4276,50.82782 c -22.3932,0 -40.6232,-20.79955 -40.6232,-46.37223 0,-3.30951 0.3074,-6.61591 0.9155,-9.83102 4.5041,-3.77606 18.083,-6.95217 35.7383,-5.71169 19.2458,1.35673 35.3975,7.46709 44.586,16.84405 -0.033,1.52057 -0.1404,3.04192 -0.3007,4.54064 -2.5394,23.10107 -19.8739,40.53025 -40.3159,40.53025"
         style="fill:#84a6b3;fill-opacity:1;fill-rule:nonzero;stroke:none;stroke-width:0.7220512"
         id="path268"
         inkscape:connector-curvature="0" /><path
         d="m 2849.7118,377.74198 c -1.9714,0.905 -5.3795,2.41075 -9.2353,1.84668 -3.6821,-0.53052 -5.6401,-2.65183 -5.6401,-7.84781 v -6.75635 h 14.8887 v -13.40346 h -14.8887 v -42.55013 h -12.9107 v 42.55013 h -8.9546 v 13.40346 h 8.9546 v 6.92721 c 0,13.10777 5.9876,21.71391 17.1608,21.71391 4.2969,0 7.7384,-0.95415 10.6253,-2.4045 v -13.47914"
         style="fill:#84a6b3;fill-opacity:1;fill-rule:nonzero;stroke:none;stroke-width:0.7220512"
         id="path270"
         inkscape:connector-curvature="0" /><path
         d="m 2881.1331,351.74566 c -1.1761,0.23483 -2.3856,0.3659 -3.515,0.3659 -5.9809,0 -10.0906,-4.27537 -10.0906,-12.59831 v -30.48234 h -12.9041 v 55.95359 h 12.5165 v -6.12517 c 3.0138,5.25996 7.6114,7.62468 13.4987,7.62468 2.7666,0 5.6668,-0.99941 7.3107,-2.62998 l -6.8162,-12.10837"
         style="fill:#84a6b3;fill-opacity:1;fill-rule:nonzero;stroke:none;stroke-width:0.7220512"
         id="path272"
         inkscape:connector-curvature="0" /><path
         d="m 2898.1937,342.28912 h 21.2238 c -1.1895,7.16204 -4.8984,11.20336 -10.4382,11.20336 -6.0878,0 -9.6429,-4.27616 -10.7856,-11.20336 z m 34.1812,-5.19599 c 0,-1.73121 -0.1002,-3.81507 -0.2472,-5.08598 h -33.9808 c 1.3833,-8.08264 6.2348,-11.60203 12.3159,-11.60203 4.1566,0 8.6539,1.96527 12.1222,5.37543 l 7.5646,-9.71244 c -5.4396,-5.82715 -12.3627,-8.48755 -20.4285,-8.48755 -14.6883,0 -24.8792,11.66912 -24.8792,29.27774 0,17.6094 9.8969,29.62571 24.2377,29.62571 13.7994,0 23.2485,-11.95233 23.2953,-29.39088"
         style="fill:#84a6b3;fill-opacity:1;fill-rule:nonzero;stroke:none;stroke-width:0.7220512"
         id="path274"
         inkscape:connector-curvature="0" /><path
         d="m 2949.3419,342.28912 h 21.2171 c -1.1828,7.16204 -4.8983,11.20336 -10.4314,11.20336 -6.0879,0 -9.6497,-4.27616 -10.7857,-11.20336 z m 34.1813,-5.19599 c 0,-1.73121 -0.107,-3.81507 -0.2473,-5.08598 h -33.9808 c 1.3833,-8.08264 6.2282,-11.60203 12.3093,-11.60203 4.1632,0 8.6539,1.96527 12.1221,5.37543 l 7.5714,-9.71244 c -5.4463,-5.82715 -12.3694,-8.48755 -20.4353,-8.48755 -14.6882,0 -24.8791,11.66912 -24.8791,29.27774 0,17.6094 9.8969,29.62571 24.2376,29.62571 13.7995,0 23.2486,-11.95233 23.3021,-29.39088"
         style="fill:#84a6b3;fill-opacity:1;fill-rule:nonzero;stroke:none;stroke-width:0.7220512"
         id="path276"
         inkscape:connector-curvature="0" /><path
         d="m 3001.3522,337.03852 c 0,-8.83786 4.9986,-15.42412 12.3159,-15.42412 7.6182,0 12.3628,6.87259 12.3628,15.42412 0,8.54217 -4.7446,15.40852 -12.3628,15.40852 -7.3173,0 -12.3159,-6.5769 -12.3159,-15.40852 z m 37.9368,0 c 0,-16.80425 -9.9904,-29.45796 -23.1951,-29.45796 -6.4286,0 -10.9861,2.94673 -14.1002,7.2775 v -28.92745 h -12.8572 v 79.05389 h 12.61 v -6.17745 c 3.114,4.56249 7.7183,7.67696 14.2939,7.67696 13.2582,0 23.2486,-12.64747 23.2486,-29.44549"
         style="fill:#84a6b3;fill-opacity:1;fill-rule:nonzero;stroke:none;stroke-width:0.7220512"
         id="path278"
         inkscape:connector-curvature="0" /><path
         d="m 3058.2942,309.03091 h -12.904 v 55.95359 h 12.904 z m 1.7308,74.25735 c 0,-5.43082 -3.6086,-9.58761 -8.253,-9.58761 -4.6577,0 -8.2128,4.15679 -8.2128,9.58761 0,5.43082 3.5551,9.70386 8.2128,9.70386 4.6444,0 8.253,-4.27304 8.253,-9.70386"
         style="fill:#84a6b3;fill-opacity:1;fill-rule:nonzero;stroke:none;stroke-width:0.7220512"
         id="path280"
         inkscape:connector-curvature="0" /><path
         d="m 3079.8388,345.05953 18.0562,19.92497 h 15.8243 l -23.2419,-26.33101 23.3956,-29.62258 h -15.8778 l -18.1564,22.6314 v -22.6314 h -12.9107 v 83.1506 h 12.9107 v -47.12198"
         style="fill:#84a6b3;fill-opacity:1;fill-rule:nonzero;stroke:none;stroke-width:0.7220512"
         id="path282"
         inkscape:connector-curvature="0" /><path
         d="m 2200.2815,324.50106 v 25.02967 c -2.6396,4.8059 -8.3131,8.91666 -14.1937,8.91666 -9.4893,0 -15.1694,-9.14525 -15.1694,-21.36908 0,-12.23319 5.6801,-21.25985 15.1694,-21.25985 5.8806,0 11.5541,3.88528 14.1937,8.6826 z m 0,-14.97006 v 8.22854 c -3.5217,-5.60168 -9.2954,-9.59385 -15.9512,-9.59385 -12.336,0 -21.0434,10.96852 -21.0434,28.91262 0,17.59926 8.6138,29.02185 21.0434,29.02185 6.3617,0 12.1355,-3.65124 15.9512,-9.71244 v 29.37215 h 7.3441 V 309.531 h -7.3441"
         style="fill:#84a6b3;fill-opacity:1;fill-rule:nonzero;stroke:none;stroke-width:0.7220512"
         id="path284"
         inkscape:connector-curvature="0" /><path
         d="m 2240.3167,359.0177 c -10.0773,0 -15.0692,-9.94103 -15.4635,-18.39816 h 31.0338 c -0.1002,8.23088 -4.7981,18.39816 -15.5703,18.39816 z m -23.1952,-21.83016 c 0,15.99989 9.79,28.91262 23.2954,28.91262 14.294,0 22.714,-13.02274 22.714,-29.59216 v -2.17592 h -38.2777 c 0.5881,-10.40133 6.8496,-19.08393 17.0339,-19.08393 5.3794,0 10.8658,2.51139 14.5813,6.96699 l 3.5217,-5.59232 c -4.6978,-5.48543 -11.053,-8.45713 -18.7913,-8.45713 -13.9933,0 -24.0773,11.76353 -24.0773,29.02185"
         style="fill:#84a6b3;fill-opacity:1;fill-rule:nonzero;stroke:none;stroke-width:0.7220512"
         id="path286"
         inkscape:connector-curvature="0" /><path
         d="m 2268.4101,316.84829 3.8157,6.17121 c 3.1341,-4.23012 9.1083,-7.88682 15.5637,-7.88682 7.2439,0 11.1599,4.00153 11.1599,9.48697 0,13.36991 -29.2629,5.14137 -29.2629,25.59608 0,8.57338 6.3551,15.88443 17.6152,15.88443 8.0257,0 13.7059,-3.54123 17.5216,-7.99683 l -3.4281,-5.94574 c -2.8334,4.00466 -8.0258,6.97558 -14.0935,6.97558 -6.4621,0 -10.4716,-3.7667 -10.4716,-8.6826 0,-12.11695 29.2629,-4.12013 29.2629,-25.60545 0,-9.25213 -6.3551,-16.67943 -18.5909,-16.67943 -7.7384,0 -14.2939,2.73686 -19.092,8.6826"
         style="fill:#84a6b3;fill-opacity:1;fill-rule:nonzero;stroke:none;stroke-width:0.7220512"
         id="path288"
         inkscape:connector-curvature="0" /><path
         d="m 2315.5889,309.531 v 55.20385 h 7.3441 V 309.531 Z m -1.2697,68.80235 c 0,3.19951 2.252,5.82949 4.8916,5.82949 2.7399,0 4.9919,-2.62998 4.9919,-5.82949 0,-3.19717 -2.252,-5.71792 -4.9919,-5.71792 -2.6396,0 -4.8916,2.52075 -4.8916,5.71792"
         style="fill:#84a6b3;fill-opacity:1;fill-rule:nonzero;stroke:none;stroke-width:0.7220512"
         id="path290"
         inkscape:connector-curvature="0" /><path
         d="m 2369.33,325.42089 v 24.10984 c -2.5461,4.8059 -8.2262,8.91666 -14.1002,8.91666 -9.4959,0 -15.1694,-8.80119 -15.1694,-21.02502 0,-12.11695 5.6735,-21.03438 15.1694,-21.03438 5.874,0 11.5541,4.227 14.1002,9.0329 z m -34.2615,-30.05792 3.7155,6.39668 c 3.916,-5.48544 8.6138,-7.53652 15.3699,-7.53652 7.8319,0 15.1761,4.45559 15.1761,16.56942 v 7.88136 c -3.4282,-5.59544 -9.2019,-9.82244 -15.8577,-9.82244 -12.336,0 -21.0501,10.74227 -21.0501,28.5709 0,17.70926 8.6139,28.67779 21.0501,28.67779 6.3618,0 12.0353,-3.65124 15.8577,-9.71244 v 8.34713 h 7.3374 v -53.59746 c 0,-18.28894 -10.9594,-24.00608 -22.5135,-24.00608 -8.0257,0 -13.5054,1.83185 -19.0854,8.23166"
         style="fill:#84a6b3;fill-opacity:1;fill-rule:nonzero;stroke:none;stroke-width:0.7220512"
         id="path292"
         inkscape:connector-curvature="0" /><path
         d="m 2420.8123,309.531 v 36.11367 c 0,9.7218 -4.21,12.80272 -10.5718,12.80272 -5.7737,0 -11.2534,-4.11076 -13.9932,-8.57572 V 309.531 h -7.3441 v 55.20385 h 7.3441 v -8.00307 c 3.3279,4.57106 9.7832,9.36838 16.8333,9.36838 9.8835,0 15.0759,-5.82715 15.0759,-17.82551 V 309.531 h -7.3442"
         style="fill:#84a6b3;fill-opacity:1;fill-rule:nonzero;stroke:none;stroke-width:0.7220512"
         id="path294"
         inkscape:connector-curvature="0" /><path
         d="m 2460.8475,359.0177 c -10.0773,0 -15.0758,-9.94103 -15.4634,-18.39816 h 31.0271 c -0.1003,8.23088 -4.7981,18.39816 -15.5637,18.39816 z m -23.2018,-21.83016 c 0,15.99989 9.7899,28.91262 23.302,28.91262 14.2873,0 22.7073,-13.02274 22.7073,-29.59216 v -2.17592 h -38.2709 c 0.588,-10.40133 6.8496,-19.08393 17.0271,-19.08393 5.3861,0 10.8658,2.51139 14.588,6.96699 l 3.5217,-5.59232 c -4.6978,-5.48543 -11.0596,-8.45713 -18.7913,-8.45713 -13.9933,0 -24.0839,11.76353 -24.0839,29.02185"
         style="fill:#84a6b3;fill-opacity:1;fill-rule:nonzero;stroke:none;stroke-width:0.7220512"
         id="path296"
         inkscape:connector-curvature="0" /><path
         d="m 2527.3121,324.50106 v 25.02967 c -2.6463,4.8059 -8.3197,8.91666 -14.1937,8.91666 -9.4959,0 -15.1694,-9.14525 -15.1694,-21.36908 0,-12.23319 5.6735,-21.25985 15.1694,-21.25985 5.874,0 11.5474,3.88528 14.1937,8.6826 z m 0,-14.97006 v 8.22854 c -3.5217,-5.60168 -9.2954,-9.59385 -15.9579,-9.59385 -12.3293,0 -21.0433,10.96852 -21.0433,28.91262 0,17.59926 8.6138,29.02185 21.0433,29.02185 6.3618,0 12.1422,-3.65124 15.9579,-9.71244 v 29.37215 h 7.3375 V 309.531 h -7.3375"
         style="fill:#84a6b3;fill-opacity:1;fill-rule:nonzero;stroke:none;stroke-width:0.7220512"
         id="path298"
         inkscape:connector-curvature="0" /><path
         d="m 2591.1305,315.81846 c 9.5961,0 15.2696,9.02666 15.2696,21.25985 0,12.22383 -5.6735,21.36908 -15.2696,21.36908 -5.7737,0 -11.5475,-4.11076 -14.0935,-8.91666 v -25.02967 c 2.546,-4.79732 8.3198,-8.6826 14.0935,-8.6826 z m -21.4376,-6.28746 v 76.22887 h 7.3441 v -29.37215 c 3.8157,6.0612 9.4959,9.71244 15.9512,9.71244 12.336,0 21.0501,-11.42259 21.0501,-29.02185 0,-17.9441 -8.7141,-28.91262 -21.0501,-28.91262 -6.6558,0 -12.4295,3.99217 -15.9512,9.59385 V 309.531 h -7.3441"
         style="fill:#84a6b3;fill-opacity:1;fill-rule:nonzero;stroke:none;stroke-width:0.7220512"
         id="path300"
         inkscape:connector-curvature="0" /><path
         d="m 2622.0573,295.7039 c 1.0826,-0.56953 2.8401,-0.91124 4.0162,-0.91124 3.2277,0 5.3862,1.25608 7.0501,5.82715 l 3.1275,8.34166 -19.7737,55.77338 h 7.9322 l 15.7574,-45.25658 15.6639,45.25658 h 8.0258 l -23.6897,-66.40097 c -2.8334,-7.99682 -7.6314,-11.08633 -13.8997,-11.20257 -1.5637,0 -4.0095,0.34171 -5.3794,0.80124 l 1.1694,7.77135"
         style="fill:#84a6b3;fill-opacity:1;fill-rule:nonzero;stroke:none;stroke-width:0.7220512"
         id="path302"
         inkscape:connector-curvature="0" /></g></g></svg>